%TF.GenerationSoftware,KiCad,Pcbnew,9.0.6*%
%TF.CreationDate,2026-01-23T15:57:10+01:00*%
%TF.ProjectId,customPCB,63757374-6f6d-4504-9342-2e6b69636164,rev?*%
%TF.SameCoordinates,Original*%
%TF.FileFunction,Soldermask,Bot*%
%TF.FilePolarity,Negative*%
%FSLAX46Y46*%
G04 Gerber Fmt 4.6, Leading zero omitted, Abs format (unit mm)*
G04 Created by KiCad (PCBNEW 9.0.6) date 2026-01-23 15:57:10*
%MOMM*%
%LPD*%
G01*
G04 APERTURE LIST*
G04 Aperture macros list*
%AMRoundRect*
0 Rectangle with rounded corners*
0 $1 Rounding radius*
0 $2 $3 $4 $5 $6 $7 $8 $9 X,Y pos of 4 corners*
0 Add a 4 corners polygon primitive as box body*
4,1,4,$2,$3,$4,$5,$6,$7,$8,$9,$2,$3,0*
0 Add four circle primitives for the rounded corners*
1,1,$1+$1,$2,$3*
1,1,$1+$1,$4,$5*
1,1,$1+$1,$6,$7*
1,1,$1+$1,$8,$9*
0 Add four rect primitives between the rounded corners*
20,1,$1+$1,$2,$3,$4,$5,0*
20,1,$1+$1,$4,$5,$6,$7,0*
20,1,$1+$1,$6,$7,$8,$9,0*
20,1,$1+$1,$8,$9,$2,$3,0*%
G04 Aperture macros list end*
%ADD10C,0.900000*%
%ADD11RoundRect,0.250000X-0.600000X-0.750000X0.600000X-0.750000X0.600000X0.750000X-0.600000X0.750000X0*%
%ADD12O,1.700000X2.000000*%
%ADD13C,0.700000*%
%ADD14O,1.700000X0.900000*%
%ADD15O,2.400000X0.900000*%
%ADD16C,1.700000*%
%ADD17RoundRect,0.250000X-0.600000X-0.600000X0.600000X-0.600000X0.600000X0.600000X-0.600000X0.600000X0*%
%ADD18R,0.900000X1.700000*%
%ADD19RoundRect,0.250000X0.325000X0.650000X-0.325000X0.650000X-0.325000X-0.650000X0.325000X-0.650000X0*%
%ADD20RoundRect,1.500000X-1.500000X-1.500000X1.500000X-1.500000X1.500000X1.500000X-1.500000X1.500000X0*%
%ADD21C,6.000000*%
%ADD22RoundRect,0.218750X-0.218750X-0.256250X0.218750X-0.256250X0.218750X0.256250X-0.218750X0.256250X0*%
%ADD23RoundRect,0.200000X0.200000X0.275000X-0.200000X0.275000X-0.200000X-0.275000X0.200000X-0.275000X0*%
%ADD24RoundRect,0.250000X1.000000X0.650000X-1.000000X0.650000X-1.000000X-0.650000X1.000000X-0.650000X0*%
%ADD25RoundRect,0.200000X-0.200000X-0.275000X0.200000X-0.275000X0.200000X0.275000X-0.200000X0.275000X0*%
%ADD26R,0.800000X1.000000*%
%ADD27R,1.500000X0.700000*%
G04 APERTURE END LIST*
D10*
%TO.C,SW4*%
X127755000Y-136900000D03*
X127755000Y-133900000D03*
%TD*%
%TO.C,SW1*%
X92850000Y-183900000D03*
X95850000Y-183900000D03*
%TD*%
D11*
%TO.C,M1*%
X104200000Y-151600000D03*
D12*
X106700000Y-151600000D03*
%TD*%
D13*
%TO.C,J2*%
X88225000Y-147275000D03*
X88225000Y-146425000D03*
X88225000Y-145575000D03*
X88225000Y-144725000D03*
X88225000Y-143875000D03*
X88225000Y-143025000D03*
X88225000Y-142175000D03*
X88225000Y-141325000D03*
X86875000Y-141325000D03*
X86875000Y-142175000D03*
X86875000Y-143025000D03*
X86875000Y-143875000D03*
X86875000Y-144725000D03*
X86875000Y-145575000D03*
X86875000Y-146425000D03*
X86875000Y-147275000D03*
D14*
X83865000Y-148625000D03*
D15*
X87245000Y-148625000D03*
D14*
X83865000Y-139975000D03*
D15*
X87245000Y-139975000D03*
%TD*%
D16*
%TO.C,J4*%
X121700000Y-173540000D03*
X124240000Y-173540000D03*
D17*
X121700000Y-171000000D03*
X124240000Y-171000000D03*
D16*
X121700000Y-168460000D03*
X124240000Y-168460000D03*
X121700000Y-165920000D03*
X124240000Y-165920000D03*
X121700000Y-163380000D03*
X124240000Y-163380000D03*
X121700000Y-160840000D03*
X124240000Y-160840000D03*
X121700000Y-158300000D03*
X124240000Y-158300000D03*
X121700000Y-155760000D03*
X124240000Y-155760000D03*
X121700000Y-153220000D03*
X124240000Y-153220000D03*
X121700000Y-150680000D03*
X124240000Y-150680000D03*
X121700000Y-148140000D03*
X124240000Y-148140000D03*
X121700000Y-145600000D03*
X124240000Y-145600000D03*
%TD*%
D18*
%TO.C,SW3*%
X110270000Y-143600000D03*
X113670000Y-143600000D03*
%TD*%
D19*
%TO.C,C6*%
X113375000Y-140700000D03*
X110425000Y-140700000D03*
%TD*%
D20*
%TO.C,J1*%
X86400000Y-157000000D03*
D21*
X93600000Y-157000000D03*
%TD*%
D22*
%TO.C,D2*%
X109712500Y-135700000D03*
X111287500Y-135700000D03*
%TD*%
D23*
%TO.C,R2*%
X100725000Y-145800000D03*
X99075000Y-145800000D03*
%TD*%
D22*
%TO.C,D4*%
X108812500Y-138800000D03*
X110387500Y-138800000D03*
%TD*%
D24*
%TO.C,D3*%
X116100000Y-165600000D03*
X112100000Y-165600000D03*
%TD*%
D25*
%TO.C,R10*%
X112700000Y-135700000D03*
X114350000Y-135700000D03*
%TD*%
%TO.C,R11*%
X111850000Y-138800000D03*
X113500000Y-138800000D03*
%TD*%
D11*
%TO.C,M3*%
X104200000Y-165600000D03*
D12*
X106700000Y-165600000D03*
%TD*%
D26*
%TO.C,SW5*%
X82170000Y-136550000D03*
X84380000Y-136550000D03*
D10*
X83270000Y-134400000D03*
X83270000Y-131400000D03*
D26*
X82170000Y-129250000D03*
X84380000Y-129250000D03*
D27*
X85030000Y-135150000D03*
X85030000Y-132150000D03*
X85030000Y-130650000D03*
%TD*%
D11*
%TO.C,M2*%
X104200000Y-158600000D03*
D12*
X106700000Y-158600000D03*
%TD*%
M02*
