%TF.GenerationSoftware,KiCad,Pcbnew,9.0.6*%
%TF.CreationDate,2026-01-23T15:57:10+01:00*%
%TF.ProjectId,customPCB,63757374-6f6d-4504-9342-2e6b69636164,rev?*%
%TF.SameCoordinates,Original*%
%TF.FileFunction,Legend,Top*%
%TF.FilePolarity,Positive*%
%FSLAX46Y46*%
G04 Gerber Fmt 4.6, Leading zero omitted, Abs format (unit mm)*
G04 Created by KiCad (PCBNEW 9.0.6) date 2026-01-23 15:57:10*
%MOMM*%
%LPD*%
G01*
G04 APERTURE LIST*
%ADD10C,0.100000*%
%ADD11C,0.200000*%
%ADD12C,0.150000*%
%ADD13C,0.120000*%
G04 APERTURE END LIST*
D10*
X82862430Y-126299380D02*
X83728455Y-125799380D01*
X83728455Y-125799380D02*
X83918932Y-126129295D01*
X83918932Y-126129295D02*
X83925311Y-126235583D01*
X83925311Y-126235583D02*
X83907882Y-126300632D01*
X83907882Y-126300632D02*
X83849212Y-126389490D01*
X83849212Y-126389490D02*
X83725495Y-126460919D01*
X83725495Y-126460919D02*
X83619206Y-126467299D01*
X83619206Y-126467299D02*
X83554158Y-126449869D01*
X83554158Y-126449869D02*
X83465299Y-126391200D01*
X83465299Y-126391200D02*
X83274823Y-126061285D01*
X83433859Y-127289124D02*
X83427479Y-127182836D01*
X83427479Y-127182836D02*
X83444909Y-127117787D01*
X83444909Y-127117787D02*
X83503578Y-127028928D01*
X83503578Y-127028928D02*
X83751013Y-126886071D01*
X83751013Y-126886071D02*
X83857302Y-126879692D01*
X83857302Y-126879692D02*
X83922350Y-126897121D01*
X83922350Y-126897121D02*
X84011209Y-126955790D01*
X84011209Y-126955790D02*
X84082637Y-127079508D01*
X84082637Y-127079508D02*
X84089017Y-127185797D01*
X84089017Y-127185797D02*
X84071587Y-127250845D01*
X84071587Y-127250845D02*
X84012918Y-127339704D01*
X84012918Y-127339704D02*
X83765482Y-127482561D01*
X83765482Y-127482561D02*
X83659194Y-127488941D01*
X83659194Y-127488941D02*
X83594145Y-127471511D01*
X83594145Y-127471511D02*
X83505287Y-127412842D01*
X83505287Y-127412842D02*
X83433859Y-127289124D01*
X83814811Y-127948953D02*
X84680836Y-127448953D01*
X84192344Y-127840955D02*
X84005287Y-128278867D01*
X84582637Y-127945534D02*
X84062247Y-127806096D01*
X85011209Y-128687842D02*
X84433859Y-129021175D01*
X84796923Y-128316688D02*
X84343291Y-128578593D01*
X84343291Y-128578593D02*
X84284622Y-128667451D01*
X84284622Y-128667451D02*
X84291002Y-128773739D01*
X84291002Y-128773739D02*
X84362430Y-128897457D01*
X84362430Y-128897457D02*
X84451288Y-128956126D01*
X84451288Y-128956126D02*
X84516337Y-128973556D01*
X84886240Y-129804722D02*
X85752265Y-129304722D01*
X84927479Y-129780912D02*
X84838621Y-129722243D01*
X84838621Y-129722243D02*
X84743383Y-129557286D01*
X84743383Y-129557286D02*
X84737003Y-129450998D01*
X84737003Y-129450998D02*
X84754433Y-129385949D01*
X84754433Y-129385949D02*
X84813102Y-129297091D01*
X84813102Y-129297091D02*
X85060537Y-129154233D01*
X85060537Y-129154233D02*
X85166826Y-129147854D01*
X85166826Y-129147854D02*
X85231874Y-129165283D01*
X85231874Y-129165283D02*
X85320733Y-129223953D01*
X85320733Y-129223953D02*
X85415971Y-129388910D01*
X85415971Y-129388910D02*
X85422351Y-129495198D01*
X86011209Y-130419893D02*
X86201685Y-130749807D01*
X86371313Y-130376944D02*
X85629005Y-130805515D01*
X85629005Y-130805515D02*
X85570336Y-130894374D01*
X85570336Y-130894374D02*
X85576716Y-131000662D01*
X85576716Y-131000662D02*
X85624335Y-131083140D01*
X85862431Y-131495534D02*
X85856051Y-131389246D01*
X85856051Y-131389246D02*
X85873481Y-131324197D01*
X85873481Y-131324197D02*
X85932150Y-131235339D01*
X85932150Y-131235339D02*
X86179585Y-131092481D01*
X86179585Y-131092481D02*
X86285874Y-131086102D01*
X86285874Y-131086102D02*
X86350922Y-131103531D01*
X86350922Y-131103531D02*
X86439781Y-131162201D01*
X86439781Y-131162201D02*
X86511209Y-131285918D01*
X86511209Y-131285918D02*
X86517589Y-131392207D01*
X86517589Y-131392207D02*
X86500159Y-131457255D01*
X86500159Y-131457255D02*
X86441490Y-131546114D01*
X86441490Y-131546114D02*
X86194054Y-131688971D01*
X86194054Y-131688971D02*
X86087766Y-131695351D01*
X86087766Y-131695351D02*
X86022717Y-131677921D01*
X86022717Y-131677921D02*
X85933859Y-131619252D01*
X85933859Y-131619252D02*
X85862431Y-131495534D01*
X86243383Y-132155363D02*
X87109408Y-131655363D01*
X86457669Y-132526517D02*
X86911301Y-132264612D01*
X86911301Y-132264612D02*
X86969970Y-132175753D01*
X86969970Y-132175753D02*
X86963590Y-132069465D01*
X86963590Y-132069465D02*
X86892162Y-131945747D01*
X86892162Y-131945747D02*
X86803303Y-131887078D01*
X86803303Y-131887078D02*
X86738255Y-131869649D01*
X86767193Y-133062628D02*
X86760813Y-132956340D01*
X86760813Y-132956340D02*
X86819482Y-132867481D01*
X86819482Y-132867481D02*
X87561789Y-132438910D01*
X87189384Y-133698647D02*
X87100526Y-133639978D01*
X87100526Y-133639978D02*
X87005288Y-133475021D01*
X87005288Y-133475021D02*
X86998908Y-133368733D01*
X86998908Y-133368733D02*
X87057577Y-133279875D01*
X87057577Y-133279875D02*
X87387492Y-133089398D01*
X87387492Y-133089398D02*
X87493780Y-133083019D01*
X87493780Y-133083019D02*
X87582638Y-133141688D01*
X87582638Y-133141688D02*
X87677876Y-133306645D01*
X87677876Y-133306645D02*
X87684256Y-133412933D01*
X87684256Y-133412933D02*
X87625587Y-133501791D01*
X87625587Y-133501791D02*
X87543108Y-133549411D01*
X87543108Y-133549411D02*
X87222535Y-133184637D01*
X88022718Y-135142023D02*
X87933860Y-135083354D01*
X87933860Y-135083354D02*
X87838622Y-134918397D01*
X87838622Y-134918397D02*
X87832242Y-134812109D01*
X87832242Y-134812109D02*
X87849672Y-134747060D01*
X87849672Y-134747060D02*
X87908341Y-134658202D01*
X87908341Y-134658202D02*
X88155776Y-134515345D01*
X88155776Y-134515345D02*
X88262065Y-134508965D01*
X88262065Y-134508965D02*
X88327113Y-134526395D01*
X88327113Y-134526395D02*
X88415972Y-134585064D01*
X88415972Y-134585064D02*
X88511210Y-134750021D01*
X88511210Y-134750021D02*
X88517590Y-134856309D01*
X88698267Y-134312109D02*
X88669787Y-134548495D01*
X88669787Y-134548495D02*
X88888743Y-134642023D01*
X88701686Y-135079936D02*
X88892162Y-135409850D01*
X89061790Y-135036987D02*
X88319482Y-135465558D01*
X88319482Y-135465558D02*
X88260813Y-135554417D01*
X88260813Y-135554417D02*
X88267193Y-135660705D01*
X88267193Y-135660705D02*
X88314812Y-135743183D01*
X88713194Y-136337964D02*
X88624336Y-136279295D01*
X88624336Y-136279295D02*
X88529098Y-136114337D01*
X88529098Y-136114337D02*
X88522718Y-136008049D01*
X88522718Y-136008049D02*
X88581387Y-135919191D01*
X88581387Y-135919191D02*
X88911302Y-135728715D01*
X88911302Y-135728715D02*
X89017590Y-135722335D01*
X89017590Y-135722335D02*
X89106448Y-135781004D01*
X89106448Y-135781004D02*
X89201686Y-135945961D01*
X89201686Y-135945961D02*
X89208066Y-136052249D01*
X89208066Y-136052249D02*
X89149397Y-136141108D01*
X89149397Y-136141108D02*
X89066918Y-136188727D01*
X89066918Y-136188727D02*
X88746345Y-135823953D01*
X88927480Y-136709118D02*
X88933860Y-136815406D01*
X88933860Y-136815406D02*
X89029098Y-136980363D01*
X89029098Y-136980363D02*
X89117956Y-137039032D01*
X89117956Y-137039032D02*
X89224245Y-137032652D01*
X89224245Y-137032652D02*
X89265484Y-137008843D01*
X89265484Y-137008843D02*
X89324153Y-136919984D01*
X89324153Y-136919984D02*
X89317773Y-136813696D01*
X89317773Y-136813696D02*
X89246345Y-136689978D01*
X89246345Y-136689978D02*
X89239965Y-136583690D01*
X89239965Y-136583690D02*
X89298634Y-136494832D01*
X89298634Y-136494832D02*
X89339873Y-136471022D01*
X89339873Y-136471022D02*
X89446161Y-136464643D01*
X89446161Y-136464643D02*
X89535020Y-136523312D01*
X89535020Y-136523312D02*
X89606448Y-136647030D01*
X89606448Y-136647030D02*
X89612828Y-136753318D01*
X89793506Y-136209118D02*
X89765026Y-136445503D01*
X89765026Y-136445503D02*
X89983982Y-136539032D01*
X90201687Y-137678013D02*
X90392163Y-138007927D01*
X90561790Y-137635064D02*
X89819483Y-138063635D01*
X89819483Y-138063635D02*
X89760814Y-138152494D01*
X89760814Y-138152494D02*
X89767194Y-138258782D01*
X89767194Y-138258782D02*
X89814813Y-138341260D01*
X90195765Y-139001090D02*
X90649398Y-138739185D01*
X90649398Y-138739185D02*
X90708067Y-138650327D01*
X90708067Y-138650327D02*
X90701687Y-138544038D01*
X90701687Y-138544038D02*
X90606449Y-138379081D01*
X90606449Y-138379081D02*
X90517590Y-138320412D01*
X90237004Y-138977280D02*
X90148146Y-138918611D01*
X90148146Y-138918611D02*
X90029099Y-138712415D01*
X90029099Y-138712415D02*
X90022719Y-138606126D01*
X90022719Y-138606126D02*
X90081388Y-138517268D01*
X90081388Y-138517268D02*
X90163866Y-138469649D01*
X90163866Y-138469649D02*
X90270155Y-138463269D01*
X90270155Y-138463269D02*
X90359013Y-138521938D01*
X90359013Y-138521938D02*
X90478061Y-138728135D01*
X90478061Y-138728135D02*
X90566919Y-138786804D01*
X90433860Y-139413483D02*
X91299886Y-138913483D01*
X90811394Y-139305485D02*
X90624337Y-139743397D01*
X91201687Y-139410064D02*
X90681296Y-139270626D01*
X91433861Y-141145534D02*
X92299886Y-140645534D01*
X91475100Y-141121724D02*
X91386242Y-141063055D01*
X91386242Y-141063055D02*
X91291004Y-140898098D01*
X91291004Y-140898098D02*
X91284624Y-140791810D01*
X91284624Y-140791810D02*
X91302054Y-140726761D01*
X91302054Y-140726761D02*
X91360723Y-140637903D01*
X91360723Y-140637903D02*
X91608158Y-140495046D01*
X91608158Y-140495046D02*
X91714447Y-140488666D01*
X91714447Y-140488666D02*
X91779495Y-140506096D01*
X91779495Y-140506096D02*
X91868354Y-140564765D01*
X91868354Y-140564765D02*
X91963592Y-140729722D01*
X91963592Y-140729722D02*
X91969972Y-140836010D01*
X91903671Y-141864032D02*
X91814813Y-141805363D01*
X91814813Y-141805363D02*
X91719575Y-141640406D01*
X91719575Y-141640406D02*
X91713195Y-141534118D01*
X91713195Y-141534118D02*
X91771864Y-141445259D01*
X91771864Y-141445259D02*
X92101779Y-141254783D01*
X92101779Y-141254783D02*
X92208067Y-141248403D01*
X92208067Y-141248403D02*
X92296925Y-141307072D01*
X92296925Y-141307072D02*
X92392163Y-141472030D01*
X92392163Y-141472030D02*
X92398543Y-141578318D01*
X92398543Y-141578318D02*
X92339874Y-141667176D01*
X92339874Y-141667176D02*
X92257395Y-141714795D01*
X92257395Y-141714795D02*
X91936822Y-141350021D01*
X92117957Y-142235186D02*
X92124337Y-142341474D01*
X92124337Y-142341474D02*
X92219575Y-142506431D01*
X92219575Y-142506431D02*
X92308433Y-142565100D01*
X92308433Y-142565100D02*
X92414722Y-142558721D01*
X92414722Y-142558721D02*
X92455961Y-142534911D01*
X92455961Y-142534911D02*
X92514630Y-142446053D01*
X92514630Y-142446053D02*
X92508250Y-142339765D01*
X92508250Y-142339765D02*
X92436822Y-142216047D01*
X92436822Y-142216047D02*
X92430442Y-142109759D01*
X92430442Y-142109759D02*
X92489111Y-142020900D01*
X92489111Y-142020900D02*
X92530350Y-141997091D01*
X92530350Y-141997091D02*
X92636638Y-141990711D01*
X92636638Y-141990711D02*
X92725497Y-142049380D01*
X92725497Y-142049380D02*
X92796925Y-142173098D01*
X92796925Y-142173098D02*
X92803305Y-142279386D01*
X92505289Y-143001303D02*
X93371315Y-142501303D01*
X92882823Y-142893305D02*
X92695766Y-143331218D01*
X93273116Y-142997884D02*
X92752725Y-142858446D01*
X93124337Y-144073525D02*
X93577970Y-143811620D01*
X93577970Y-143811620D02*
X93636639Y-143722762D01*
X93636639Y-143722762D02*
X93630259Y-143616474D01*
X93630259Y-143616474D02*
X93535021Y-143451517D01*
X93535021Y-143451517D02*
X93446162Y-143392848D01*
X93165576Y-144049716D02*
X93076718Y-143991047D01*
X93076718Y-143991047D02*
X92957671Y-143784850D01*
X92957671Y-143784850D02*
X92951291Y-143678562D01*
X92951291Y-143678562D02*
X93009960Y-143589704D01*
X93009960Y-143589704D02*
X93092438Y-143542085D01*
X93092438Y-143542085D02*
X93198727Y-143535705D01*
X93198727Y-143535705D02*
X93287585Y-143594374D01*
X93287585Y-143594374D02*
X93406633Y-143800570D01*
X93406633Y-143800570D02*
X93495491Y-143859239D01*
X93743385Y-145145747D02*
X94320735Y-144812414D01*
X94238257Y-144860033D02*
X94303305Y-144877463D01*
X94303305Y-144877463D02*
X94392164Y-144936132D01*
X94392164Y-144936132D02*
X94463592Y-145059850D01*
X94463592Y-145059850D02*
X94469972Y-145166138D01*
X94469972Y-145166138D02*
X94411303Y-145254996D01*
X94411303Y-145254996D02*
X93957671Y-145516901D01*
X94411303Y-145254996D02*
X94517591Y-145248617D01*
X94517591Y-145248617D02*
X94606450Y-145307286D01*
X94606450Y-145307286D02*
X94677878Y-145431004D01*
X94677878Y-145431004D02*
X94684258Y-145537292D01*
X94684258Y-145537292D02*
X94625589Y-145626150D01*
X94625589Y-145626150D02*
X94171956Y-145888055D01*
X94481480Y-146424166D02*
X94475100Y-146317877D01*
X94475100Y-146317877D02*
X94492530Y-146252829D01*
X94492530Y-146252829D02*
X94551199Y-146163970D01*
X94551199Y-146163970D02*
X94798635Y-146021113D01*
X94798635Y-146021113D02*
X94904923Y-146014733D01*
X94904923Y-146014733D02*
X94969972Y-146032163D01*
X94969972Y-146032163D02*
X95058830Y-146090832D01*
X95058830Y-146090832D02*
X95130259Y-146214550D01*
X95130259Y-146214550D02*
X95136639Y-146320838D01*
X95136639Y-146320838D02*
X95119209Y-146385887D01*
X95119209Y-146385887D02*
X95060540Y-146474745D01*
X95060540Y-146474745D02*
X94813104Y-146617603D01*
X94813104Y-146617603D02*
X94706816Y-146623982D01*
X94706816Y-146623982D02*
X94641767Y-146606553D01*
X94641767Y-146606553D02*
X94552909Y-146547883D01*
X94552909Y-146547883D02*
X94481480Y-146424166D01*
X95392164Y-146668183D02*
X95654068Y-147121815D01*
X95654068Y-147121815D02*
X94814813Y-147001516D01*
X94814813Y-147001516D02*
X95076718Y-147455148D01*
X95769697Y-146560185D02*
X95741217Y-146796571D01*
X95741217Y-146796571D02*
X95960173Y-146890099D01*
X95844545Y-147451730D02*
X95267194Y-147785063D01*
X95762066Y-147499349D02*
X95827115Y-147516778D01*
X95827115Y-147516778D02*
X95915973Y-147575447D01*
X95915973Y-147575447D02*
X95987402Y-147699165D01*
X95987402Y-147699165D02*
X95993782Y-147805453D01*
X95993782Y-147805453D02*
X95935113Y-147894312D01*
X95935113Y-147894312D02*
X95481480Y-148156217D01*
X95933861Y-148939763D02*
X96387494Y-148677859D01*
X96387494Y-148677859D02*
X96446163Y-148589000D01*
X96446163Y-148589000D02*
X96439783Y-148482712D01*
X96439783Y-148482712D02*
X96344545Y-148317755D01*
X96344545Y-148317755D02*
X96255686Y-148259086D01*
X95975100Y-148915954D02*
X95886242Y-148857285D01*
X95886242Y-148857285D02*
X95767195Y-148651088D01*
X95767195Y-148651088D02*
X95760815Y-148544800D01*
X95760815Y-148544800D02*
X95819484Y-148455942D01*
X95819484Y-148455942D02*
X95901962Y-148408323D01*
X95901962Y-148408323D02*
X96008251Y-148401943D01*
X96008251Y-148401943D02*
X96097109Y-148460612D01*
X96097109Y-148460612D02*
X96216157Y-148666809D01*
X96216157Y-148666809D02*
X96305015Y-148725478D01*
X96769697Y-148292236D02*
X96574551Y-148239947D01*
X97130259Y-149678652D02*
X96552909Y-150011986D01*
X97047781Y-149726271D02*
X97112829Y-149743701D01*
X97112829Y-149743701D02*
X97201688Y-149802370D01*
X97201688Y-149802370D02*
X97273116Y-149926088D01*
X97273116Y-149926088D02*
X97279496Y-150032376D01*
X97279496Y-150032376D02*
X97220827Y-150121235D01*
X97220827Y-150121235D02*
X96767195Y-150383139D01*
X97237005Y-151101637D02*
X97148147Y-151042968D01*
X97148147Y-151042968D02*
X97052909Y-150878011D01*
X97052909Y-150878011D02*
X97046529Y-150771723D01*
X97046529Y-150771723D02*
X97105198Y-150682865D01*
X97105198Y-150682865D02*
X97435113Y-150492389D01*
X97435113Y-150492389D02*
X97541401Y-150486009D01*
X97541401Y-150486009D02*
X97630259Y-150544678D01*
X97630259Y-150544678D02*
X97725497Y-150709635D01*
X97725497Y-150709635D02*
X97731877Y-150815923D01*
X97731877Y-150815923D02*
X97673208Y-150904782D01*
X97673208Y-150904782D02*
X97590729Y-150952401D01*
X97590729Y-150952401D02*
X97270156Y-150587627D01*
X97451291Y-151472791D02*
X97457671Y-151579079D01*
X97457671Y-151579079D02*
X97552909Y-151744037D01*
X97552909Y-151744037D02*
X97641767Y-151802706D01*
X97641767Y-151802706D02*
X97748056Y-151796326D01*
X97748056Y-151796326D02*
X97789295Y-151772517D01*
X97789295Y-151772517D02*
X97847964Y-151683658D01*
X97847964Y-151683658D02*
X97841584Y-151577370D01*
X97841584Y-151577370D02*
X97770156Y-151453652D01*
X97770156Y-151453652D02*
X97763776Y-151347364D01*
X97763776Y-151347364D02*
X97822445Y-151258506D01*
X97822445Y-151258506D02*
X97863684Y-151234696D01*
X97863684Y-151234696D02*
X97969972Y-151228316D01*
X97969972Y-151228316D02*
X98058831Y-151286985D01*
X98058831Y-151286985D02*
X98130259Y-151410703D01*
X98130259Y-151410703D02*
X98136639Y-151516992D01*
X97838623Y-152238909D02*
X98704649Y-151738909D01*
X98052909Y-152610062D02*
X98506542Y-152348158D01*
X98506542Y-152348158D02*
X98565211Y-152259299D01*
X98565211Y-152259299D02*
X98558831Y-152153011D01*
X98558831Y-152153011D02*
X98487402Y-152029293D01*
X98487402Y-152029293D02*
X98398544Y-151970624D01*
X98398544Y-151970624D02*
X98333495Y-151953194D01*
X98362433Y-153146173D02*
X98356053Y-153039885D01*
X98356053Y-153039885D02*
X98373483Y-152974836D01*
X98373483Y-152974836D02*
X98432152Y-152885978D01*
X98432152Y-152885978D02*
X98679588Y-152743121D01*
X98679588Y-152743121D02*
X98785876Y-152736741D01*
X98785876Y-152736741D02*
X98850925Y-152754171D01*
X98850925Y-152754171D02*
X98939783Y-152812840D01*
X98939783Y-152812840D02*
X99011212Y-152936558D01*
X99011212Y-152936558D02*
X99017592Y-153042846D01*
X99017592Y-153042846D02*
X99000162Y-153107895D01*
X99000162Y-153107895D02*
X98941493Y-153196753D01*
X98941493Y-153196753D02*
X98694057Y-153339610D01*
X98694057Y-153339610D02*
X98587769Y-153345990D01*
X98587769Y-153345990D02*
X98522720Y-153328560D01*
X98522720Y-153328560D02*
X98433862Y-153269891D01*
X98433862Y-153269891D02*
X98362433Y-153146173D01*
X98743385Y-153806002D02*
X99320736Y-153472669D01*
X99155779Y-153567907D02*
X99262067Y-153561527D01*
X99262067Y-153561527D02*
X99327115Y-153578957D01*
X99327115Y-153578957D02*
X99415974Y-153637626D01*
X99415974Y-153637626D02*
X99463593Y-153720105D01*
X99603031Y-153199714D02*
X99574551Y-153436100D01*
X99574551Y-153436100D02*
X99793507Y-153529629D01*
X99284625Y-154648219D02*
X99195767Y-154589549D01*
X99195767Y-154589549D02*
X99100529Y-154424592D01*
X99100529Y-154424592D02*
X99094149Y-154318304D01*
X99094149Y-154318304D02*
X99152818Y-154229446D01*
X99152818Y-154229446D02*
X99482732Y-154038970D01*
X99482732Y-154038970D02*
X99589020Y-154032590D01*
X99589020Y-154032590D02*
X99677879Y-154091259D01*
X99677879Y-154091259D02*
X99773117Y-154256216D01*
X99773117Y-154256216D02*
X99779497Y-154362504D01*
X99779497Y-154362504D02*
X99720828Y-154451363D01*
X99720828Y-154451363D02*
X99638349Y-154498982D01*
X99638349Y-154498982D02*
X99317775Y-154134208D01*
X99552910Y-155208139D02*
X99546530Y-155101851D01*
X99546530Y-155101851D02*
X99605199Y-155012993D01*
X99605199Y-155012993D02*
X100347506Y-154584421D01*
X99957672Y-155909208D02*
X100411304Y-155647303D01*
X100411304Y-155647303D02*
X100469973Y-155558445D01*
X100469973Y-155558445D02*
X100463593Y-155452156D01*
X100463593Y-155452156D02*
X100368355Y-155287199D01*
X100368355Y-155287199D02*
X100279497Y-155228530D01*
X99998911Y-155885398D02*
X99910053Y-155826729D01*
X99910053Y-155826729D02*
X99791005Y-155620533D01*
X99791005Y-155620533D02*
X99784625Y-155514244D01*
X99784625Y-155514244D02*
X99843294Y-155425386D01*
X99843294Y-155425386D02*
X99925773Y-155377767D01*
X99925773Y-155377767D02*
X100032061Y-155371387D01*
X100032061Y-155371387D02*
X100120919Y-155430056D01*
X100120919Y-155430056D02*
X100239967Y-155636253D01*
X100239967Y-155636253D02*
X100328825Y-155694922D01*
X100659198Y-156933811D02*
X100641768Y-156998860D01*
X100641768Y-156998860D02*
X100576719Y-156981430D01*
X100576719Y-156981430D02*
X100594149Y-156916381D01*
X100594149Y-156916381D02*
X100659198Y-156933811D01*
X100659198Y-156933811D02*
X100576719Y-156981430D01*
X101112830Y-156671906D02*
X101095401Y-156736955D01*
X101095401Y-156736955D02*
X101030352Y-156719525D01*
X101030352Y-156719525D02*
X101047782Y-156654476D01*
X101047782Y-156654476D02*
X101112830Y-156671906D01*
X101112830Y-156671906D02*
X101030352Y-156719525D01*
X100437281Y-157501820D02*
X100502330Y-157519250D01*
X100502330Y-157519250D02*
X100673667Y-157530300D01*
X100673667Y-157530300D02*
X100779955Y-157523920D01*
X100779955Y-157523920D02*
X100927482Y-157493731D01*
X100927482Y-157493731D02*
X101157488Y-157415923D01*
X101157488Y-157415923D02*
X101322446Y-157320685D01*
X101322446Y-157320685D02*
X101504833Y-157160398D01*
X101504833Y-157160398D02*
X101604741Y-157047730D01*
X101604741Y-157047730D02*
X101663410Y-156958871D01*
X101663410Y-156958871D02*
X101739509Y-156804964D01*
X101739509Y-156804964D02*
X101756939Y-156739915D01*
G36*
X129030000Y-130032161D02*
G01*
X128865868Y-130081376D01*
X128865868Y-130433818D01*
X129030000Y-130482362D01*
X129030000Y-130798656D01*
X128029581Y-130422217D01*
X128029581Y-130256926D01*
X128289883Y-130256926D01*
X128650935Y-130366896D01*
X128650935Y-130146284D01*
X128289883Y-130256926D01*
X128029581Y-130256926D01*
X128029581Y-130084795D01*
X129030000Y-129708356D01*
X129030000Y-130032161D01*
G37*
G36*
X129030000Y-128969766D02*
G01*
X128723963Y-129135118D01*
X128671039Y-129167719D01*
X128646782Y-129191111D01*
X128629438Y-129226612D01*
X128623579Y-129266948D01*
X128623579Y-129294242D01*
X129030000Y-129294242D01*
X129030000Y-129605102D01*
X128029581Y-129605102D01*
X128029581Y-129158321D01*
X128232791Y-129158321D01*
X128232791Y-129294242D01*
X128436001Y-129294242D01*
X128436001Y-129163756D01*
X128422384Y-129081812D01*
X128411488Y-129053962D01*
X128390999Y-129031620D01*
X128364001Y-129017044D01*
X128333053Y-129012142D01*
X128302191Y-129015840D01*
X128277941Y-129026169D01*
X128258742Y-129042916D01*
X128245859Y-129065304D01*
X128236528Y-129101814D01*
X128232791Y-129158321D01*
X128029581Y-129158321D01*
X128029581Y-129089323D01*
X128032903Y-128992940D01*
X128041629Y-128921525D01*
X128054127Y-128870054D01*
X128075182Y-128822727D01*
X128105288Y-128782273D01*
X128145230Y-128747810D01*
X128191568Y-128722495D01*
X128245035Y-128706831D01*
X128307285Y-128701343D01*
X128361813Y-128705543D01*
X128409286Y-128717553D01*
X128450900Y-128736880D01*
X128488453Y-128763383D01*
X128520966Y-128795748D01*
X128548780Y-128834516D01*
X128569488Y-128878449D01*
X128588347Y-128943143D01*
X128608415Y-128892114D01*
X128625472Y-128862543D01*
X128641970Y-128844355D01*
X128678351Y-128813023D01*
X128740877Y-128769609D01*
X129030000Y-128620010D01*
X129030000Y-128969766D01*
G37*
G36*
X128029581Y-128524267D02*
G01*
X128029581Y-128117114D01*
X128637868Y-127960005D01*
X128029581Y-127803567D01*
X128029581Y-127397819D01*
X129030000Y-127397819D01*
X129030000Y-127650549D01*
X128266252Y-127650549D01*
X129030000Y-127846615D01*
X129030000Y-128075471D01*
X128266252Y-128270804D01*
X129030000Y-128270804D01*
X129030000Y-128524267D01*
X128029581Y-128524267D01*
G37*
X128472419Y-177296115D02*
X127472419Y-177296115D01*
X127472419Y-177296115D02*
X127472419Y-176915163D01*
X127472419Y-176915163D02*
X127520038Y-176819925D01*
X127520038Y-176819925D02*
X127567657Y-176772306D01*
X127567657Y-176772306D02*
X127662895Y-176724687D01*
X127662895Y-176724687D02*
X127805752Y-176724687D01*
X127805752Y-176724687D02*
X127900990Y-176772306D01*
X127900990Y-176772306D02*
X127948609Y-176819925D01*
X127948609Y-176819925D02*
X127996228Y-176915163D01*
X127996228Y-176915163D02*
X127996228Y-177296115D01*
X128472419Y-176153258D02*
X128424800Y-176248496D01*
X128424800Y-176248496D02*
X128377180Y-176296115D01*
X128377180Y-176296115D02*
X128281942Y-176343734D01*
X128281942Y-176343734D02*
X127996228Y-176343734D01*
X127996228Y-176343734D02*
X127900990Y-176296115D01*
X127900990Y-176296115D02*
X127853371Y-176248496D01*
X127853371Y-176248496D02*
X127805752Y-176153258D01*
X127805752Y-176153258D02*
X127805752Y-176010401D01*
X127805752Y-176010401D02*
X127853371Y-175915163D01*
X127853371Y-175915163D02*
X127900990Y-175867544D01*
X127900990Y-175867544D02*
X127996228Y-175819925D01*
X127996228Y-175819925D02*
X128281942Y-175819925D01*
X128281942Y-175819925D02*
X128377180Y-175867544D01*
X128377180Y-175867544D02*
X128424800Y-175915163D01*
X128424800Y-175915163D02*
X128472419Y-176010401D01*
X128472419Y-176010401D02*
X128472419Y-176153258D01*
X128472419Y-175391353D02*
X127472419Y-175391353D01*
X128091466Y-175296115D02*
X128472419Y-175010401D01*
X127805752Y-175010401D02*
X128186704Y-175391353D01*
X127805752Y-174153258D02*
X128472419Y-174153258D01*
X127805752Y-174581829D02*
X128329561Y-174581829D01*
X128329561Y-174581829D02*
X128424800Y-174534210D01*
X128424800Y-174534210D02*
X128472419Y-174438972D01*
X128472419Y-174438972D02*
X128472419Y-174296115D01*
X128472419Y-174296115D02*
X128424800Y-174200877D01*
X128424800Y-174200877D02*
X128377180Y-174153258D01*
X128472419Y-173248496D02*
X127472419Y-173248496D01*
X128424800Y-173248496D02*
X128472419Y-173343734D01*
X128472419Y-173343734D02*
X128472419Y-173534210D01*
X128472419Y-173534210D02*
X128424800Y-173629448D01*
X128424800Y-173629448D02*
X128377180Y-173677067D01*
X128377180Y-173677067D02*
X128281942Y-173724686D01*
X128281942Y-173724686D02*
X127996228Y-173724686D01*
X127996228Y-173724686D02*
X127900990Y-173677067D01*
X127900990Y-173677067D02*
X127853371Y-173629448D01*
X127853371Y-173629448D02*
X127805752Y-173534210D01*
X127805752Y-173534210D02*
X127805752Y-173343734D01*
X127805752Y-173343734D02*
X127853371Y-173248496D01*
X127805752Y-172105638D02*
X128472419Y-171867543D01*
X128472419Y-171867543D02*
X127805752Y-171629448D01*
X128472419Y-171248495D02*
X127805752Y-171248495D01*
X127472419Y-171248495D02*
X127520038Y-171296114D01*
X127520038Y-171296114D02*
X127567657Y-171248495D01*
X127567657Y-171248495D02*
X127520038Y-171200876D01*
X127520038Y-171200876D02*
X127472419Y-171248495D01*
X127472419Y-171248495D02*
X127567657Y-171248495D01*
X128472419Y-170343734D02*
X127472419Y-170343734D01*
X128424800Y-170343734D02*
X128472419Y-170438972D01*
X128472419Y-170438972D02*
X128472419Y-170629448D01*
X128472419Y-170629448D02*
X128424800Y-170724686D01*
X128424800Y-170724686D02*
X128377180Y-170772305D01*
X128377180Y-170772305D02*
X128281942Y-170819924D01*
X128281942Y-170819924D02*
X127996228Y-170819924D01*
X127996228Y-170819924D02*
X127900990Y-170772305D01*
X127900990Y-170772305D02*
X127853371Y-170724686D01*
X127853371Y-170724686D02*
X127805752Y-170629448D01*
X127805752Y-170629448D02*
X127805752Y-170438972D01*
X127805752Y-170438972D02*
X127853371Y-170343734D01*
X128472419Y-169867543D02*
X127805752Y-169867543D01*
X127424800Y-169772305D02*
X127567657Y-169915162D01*
X128424800Y-169438972D02*
X128472419Y-169343734D01*
X128472419Y-169343734D02*
X128472419Y-169153258D01*
X128472419Y-169153258D02*
X128424800Y-169058020D01*
X128424800Y-169058020D02*
X128329561Y-169010401D01*
X128329561Y-169010401D02*
X128281942Y-169010401D01*
X128281942Y-169010401D02*
X128186704Y-169058020D01*
X128186704Y-169058020D02*
X128139085Y-169153258D01*
X128139085Y-169153258D02*
X128139085Y-169296115D01*
X128139085Y-169296115D02*
X128091466Y-169391353D01*
X128091466Y-169391353D02*
X127996228Y-169438972D01*
X127996228Y-169438972D02*
X127948609Y-169438972D01*
X127948609Y-169438972D02*
X127853371Y-169391353D01*
X127853371Y-169391353D02*
X127805752Y-169296115D01*
X127805752Y-169296115D02*
X127805752Y-169153258D01*
X127805752Y-169153258D02*
X127853371Y-169058020D01*
X127424800Y-169438972D02*
X127567657Y-169248496D01*
X127567657Y-169248496D02*
X127424800Y-169058020D01*
X127805752Y-167819924D02*
X128805752Y-167819924D01*
X127853371Y-167819924D02*
X127805752Y-167724686D01*
X127805752Y-167724686D02*
X127805752Y-167534210D01*
X127805752Y-167534210D02*
X127853371Y-167438972D01*
X127853371Y-167438972D02*
X127900990Y-167391353D01*
X127900990Y-167391353D02*
X127996228Y-167343734D01*
X127996228Y-167343734D02*
X128281942Y-167343734D01*
X128281942Y-167343734D02*
X128377180Y-167391353D01*
X128377180Y-167391353D02*
X128424800Y-167438972D01*
X128424800Y-167438972D02*
X128472419Y-167534210D01*
X128472419Y-167534210D02*
X128472419Y-167724686D01*
X128472419Y-167724686D02*
X128424800Y-167819924D01*
X128472419Y-166772305D02*
X128424800Y-166867543D01*
X128424800Y-166867543D02*
X128329561Y-166915162D01*
X128329561Y-166915162D02*
X127472419Y-166915162D01*
X128472419Y-165962781D02*
X127948609Y-165962781D01*
X127948609Y-165962781D02*
X127853371Y-166010400D01*
X127853371Y-166010400D02*
X127805752Y-166105638D01*
X127805752Y-166105638D02*
X127805752Y-166296114D01*
X127805752Y-166296114D02*
X127853371Y-166391352D01*
X128424800Y-165962781D02*
X128472419Y-166058019D01*
X128472419Y-166058019D02*
X128472419Y-166296114D01*
X128472419Y-166296114D02*
X128424800Y-166391352D01*
X128424800Y-166391352D02*
X128329561Y-166438971D01*
X128329561Y-166438971D02*
X128234323Y-166438971D01*
X128234323Y-166438971D02*
X128139085Y-166391352D01*
X128139085Y-166391352D02*
X128091466Y-166296114D01*
X128091466Y-166296114D02*
X128091466Y-166058019D01*
X128091466Y-166058019D02*
X128043847Y-165962781D01*
X128472419Y-165486590D02*
X127805752Y-165486590D01*
X127900990Y-165486590D02*
X127853371Y-165438971D01*
X127853371Y-165438971D02*
X127805752Y-165343733D01*
X127805752Y-165343733D02*
X127805752Y-165200876D01*
X127805752Y-165200876D02*
X127853371Y-165105638D01*
X127853371Y-165105638D02*
X127948609Y-165058019D01*
X127948609Y-165058019D02*
X128472419Y-165058019D01*
X127948609Y-165058019D02*
X127853371Y-165010400D01*
X127853371Y-165010400D02*
X127805752Y-164915162D01*
X127805752Y-164915162D02*
X127805752Y-164772305D01*
X127805752Y-164772305D02*
X127853371Y-164677066D01*
X127853371Y-164677066D02*
X127948609Y-164629447D01*
X127948609Y-164629447D02*
X128472419Y-164629447D01*
X128424800Y-163772305D02*
X128472419Y-163867543D01*
X128472419Y-163867543D02*
X128472419Y-164058019D01*
X128472419Y-164058019D02*
X128424800Y-164153257D01*
X128424800Y-164153257D02*
X128329561Y-164200876D01*
X128329561Y-164200876D02*
X127948609Y-164200876D01*
X127948609Y-164200876D02*
X127853371Y-164153257D01*
X127853371Y-164153257D02*
X127805752Y-164058019D01*
X127805752Y-164058019D02*
X127805752Y-163867543D01*
X127805752Y-163867543D02*
X127853371Y-163772305D01*
X127853371Y-163772305D02*
X127948609Y-163724686D01*
X127948609Y-163724686D02*
X128043847Y-163724686D01*
X128043847Y-163724686D02*
X128139085Y-164200876D01*
X127805752Y-163296114D02*
X128472419Y-163296114D01*
X127900990Y-163296114D02*
X127853371Y-163248495D01*
X127853371Y-163248495D02*
X127805752Y-163153257D01*
X127805752Y-163153257D02*
X127805752Y-163010400D01*
X127805752Y-163010400D02*
X127853371Y-162915162D01*
X127853371Y-162915162D02*
X127948609Y-162867543D01*
X127948609Y-162867543D02*
X128472419Y-162867543D01*
X128424800Y-162343733D02*
X128472419Y-162343733D01*
X128472419Y-162343733D02*
X128567657Y-162391352D01*
X128567657Y-162391352D02*
X128615276Y-162438971D01*
X128472419Y-161153257D02*
X127805752Y-161153257D01*
X127900990Y-161153257D02*
X127853371Y-161105638D01*
X127853371Y-161105638D02*
X127805752Y-161010400D01*
X127805752Y-161010400D02*
X127805752Y-160867543D01*
X127805752Y-160867543D02*
X127853371Y-160772305D01*
X127853371Y-160772305D02*
X127948609Y-160724686D01*
X127948609Y-160724686D02*
X128472419Y-160724686D01*
X127948609Y-160724686D02*
X127853371Y-160677067D01*
X127853371Y-160677067D02*
X127805752Y-160581829D01*
X127805752Y-160581829D02*
X127805752Y-160438972D01*
X127805752Y-160438972D02*
X127853371Y-160343733D01*
X127853371Y-160343733D02*
X127948609Y-160296114D01*
X127948609Y-160296114D02*
X128472419Y-160296114D01*
X128472419Y-159677067D02*
X128424800Y-159772305D01*
X128424800Y-159772305D02*
X128377180Y-159819924D01*
X128377180Y-159819924D02*
X128281942Y-159867543D01*
X128281942Y-159867543D02*
X127996228Y-159867543D01*
X127996228Y-159867543D02*
X127900990Y-159819924D01*
X127900990Y-159819924D02*
X127853371Y-159772305D01*
X127853371Y-159772305D02*
X127805752Y-159677067D01*
X127805752Y-159677067D02*
X127805752Y-159534210D01*
X127805752Y-159534210D02*
X127853371Y-159438972D01*
X127853371Y-159438972D02*
X127900990Y-159391353D01*
X127900990Y-159391353D02*
X127996228Y-159343734D01*
X127996228Y-159343734D02*
X128281942Y-159343734D01*
X128281942Y-159343734D02*
X128377180Y-159391353D01*
X128377180Y-159391353D02*
X128424800Y-159438972D01*
X128424800Y-159438972D02*
X128472419Y-159534210D01*
X128472419Y-159534210D02*
X128472419Y-159677067D01*
X127805752Y-159010400D02*
X127805752Y-158486591D01*
X127805752Y-158486591D02*
X128472419Y-159010400D01*
X128472419Y-159010400D02*
X128472419Y-158486591D01*
X127424800Y-158915162D02*
X127567657Y-158724686D01*
X127567657Y-158724686D02*
X127424800Y-158534210D01*
X127805752Y-158105638D02*
X128472419Y-158105638D01*
X127900990Y-158105638D02*
X127853371Y-158058019D01*
X127853371Y-158058019D02*
X127805752Y-157962781D01*
X127805752Y-157962781D02*
X127805752Y-157819924D01*
X127805752Y-157819924D02*
X127853371Y-157724686D01*
X127853371Y-157724686D02*
X127948609Y-157677067D01*
X127948609Y-157677067D02*
X128472419Y-157677067D01*
X128472419Y-156772305D02*
X127948609Y-156772305D01*
X127948609Y-156772305D02*
X127853371Y-156819924D01*
X127853371Y-156819924D02*
X127805752Y-156915162D01*
X127805752Y-156915162D02*
X127805752Y-157105638D01*
X127805752Y-157105638D02*
X127853371Y-157200876D01*
X128424800Y-156772305D02*
X128472419Y-156867543D01*
X128472419Y-156867543D02*
X128472419Y-157105638D01*
X128472419Y-157105638D02*
X128424800Y-157200876D01*
X128424800Y-157200876D02*
X128329561Y-157248495D01*
X128329561Y-157248495D02*
X128234323Y-157248495D01*
X128234323Y-157248495D02*
X128139085Y-157200876D01*
X128139085Y-157200876D02*
X128091466Y-157105638D01*
X128091466Y-157105638D02*
X128091466Y-156867543D01*
X128091466Y-156867543D02*
X128043847Y-156772305D01*
X127805752Y-155534209D02*
X128662895Y-155534209D01*
X128662895Y-155534209D02*
X128758133Y-155581828D01*
X128758133Y-155581828D02*
X128805752Y-155677066D01*
X128805752Y-155677066D02*
X128805752Y-155724685D01*
X127472419Y-155534209D02*
X127520038Y-155581828D01*
X127520038Y-155581828D02*
X127567657Y-155534209D01*
X127567657Y-155534209D02*
X127520038Y-155486590D01*
X127520038Y-155486590D02*
X127472419Y-155534209D01*
X127472419Y-155534209D02*
X127567657Y-155534209D01*
X128424800Y-154677067D02*
X128472419Y-154772305D01*
X128472419Y-154772305D02*
X128472419Y-154962781D01*
X128472419Y-154962781D02*
X128424800Y-155058019D01*
X128424800Y-155058019D02*
X128329561Y-155105638D01*
X128329561Y-155105638D02*
X127948609Y-155105638D01*
X127948609Y-155105638D02*
X127853371Y-155058019D01*
X127853371Y-155058019D02*
X127805752Y-154962781D01*
X127805752Y-154962781D02*
X127805752Y-154772305D01*
X127805752Y-154772305D02*
X127853371Y-154677067D01*
X127853371Y-154677067D02*
X127948609Y-154629448D01*
X127948609Y-154629448D02*
X128043847Y-154629448D01*
X128043847Y-154629448D02*
X128139085Y-155105638D01*
X127805752Y-153438971D02*
X128472419Y-153438971D01*
X127900990Y-153438971D02*
X127853371Y-153391352D01*
X127853371Y-153391352D02*
X127805752Y-153296114D01*
X127805752Y-153296114D02*
X127805752Y-153153257D01*
X127805752Y-153153257D02*
X127853371Y-153058019D01*
X127853371Y-153058019D02*
X127948609Y-153010400D01*
X127948609Y-153010400D02*
X128472419Y-153010400D01*
X128424800Y-152153257D02*
X128472419Y-152248495D01*
X128472419Y-152248495D02*
X128472419Y-152438971D01*
X128472419Y-152438971D02*
X128424800Y-152534209D01*
X128424800Y-152534209D02*
X128329561Y-152581828D01*
X128329561Y-152581828D02*
X127948609Y-152581828D01*
X127948609Y-152581828D02*
X127853371Y-152534209D01*
X127853371Y-152534209D02*
X127805752Y-152438971D01*
X127805752Y-152438971D02*
X127805752Y-152248495D01*
X127805752Y-152248495D02*
X127853371Y-152153257D01*
X127853371Y-152153257D02*
X127948609Y-152105638D01*
X127948609Y-152105638D02*
X128043847Y-152105638D01*
X128043847Y-152105638D02*
X128139085Y-152581828D01*
X127424800Y-152534209D02*
X127567657Y-152343733D01*
X127567657Y-152343733D02*
X127424800Y-152153257D01*
X128424800Y-151248495D02*
X128472419Y-151343733D01*
X128472419Y-151343733D02*
X128472419Y-151534209D01*
X128472419Y-151534209D02*
X128424800Y-151629447D01*
X128424800Y-151629447D02*
X128377180Y-151677066D01*
X128377180Y-151677066D02*
X128281942Y-151724685D01*
X128281942Y-151724685D02*
X127996228Y-151724685D01*
X127996228Y-151724685D02*
X127900990Y-151677066D01*
X127900990Y-151677066D02*
X127853371Y-151629447D01*
X127853371Y-151629447D02*
X127805752Y-151534209D01*
X127805752Y-151534209D02*
X127805752Y-151343733D01*
X127805752Y-151343733D02*
X127853371Y-151248495D01*
X128472419Y-150677066D02*
X128424800Y-150772304D01*
X128424800Y-150772304D02*
X128377180Y-150819923D01*
X128377180Y-150819923D02*
X128281942Y-150867542D01*
X128281942Y-150867542D02*
X127996228Y-150867542D01*
X127996228Y-150867542D02*
X127900990Y-150819923D01*
X127900990Y-150819923D02*
X127853371Y-150772304D01*
X127853371Y-150772304D02*
X127805752Y-150677066D01*
X127805752Y-150677066D02*
X127805752Y-150534209D01*
X127805752Y-150534209D02*
X127853371Y-150438971D01*
X127853371Y-150438971D02*
X127900990Y-150391352D01*
X127900990Y-150391352D02*
X127996228Y-150343733D01*
X127996228Y-150343733D02*
X128281942Y-150343733D01*
X128281942Y-150343733D02*
X128377180Y-150391352D01*
X128377180Y-150391352D02*
X128424800Y-150438971D01*
X128424800Y-150438971D02*
X128472419Y-150534209D01*
X128472419Y-150534209D02*
X128472419Y-150677066D01*
X128424800Y-149200875D02*
X128472419Y-149105637D01*
X128472419Y-149105637D02*
X128472419Y-148915161D01*
X128472419Y-148915161D02*
X128424800Y-148819923D01*
X128424800Y-148819923D02*
X128329561Y-148772304D01*
X128329561Y-148772304D02*
X128281942Y-148772304D01*
X128281942Y-148772304D02*
X128186704Y-148819923D01*
X128186704Y-148819923D02*
X128139085Y-148915161D01*
X128139085Y-148915161D02*
X128139085Y-149058018D01*
X128139085Y-149058018D02*
X128091466Y-149153256D01*
X128091466Y-149153256D02*
X127996228Y-149200875D01*
X127996228Y-149200875D02*
X127948609Y-149200875D01*
X127948609Y-149200875D02*
X127853371Y-149153256D01*
X127853371Y-149153256D02*
X127805752Y-149058018D01*
X127805752Y-149058018D02*
X127805752Y-148915161D01*
X127805752Y-148915161D02*
X127853371Y-148819923D01*
X127424800Y-149200875D02*
X127567657Y-149010399D01*
X127567657Y-149010399D02*
X127424800Y-148819923D01*
X127805752Y-148343732D02*
X128805752Y-148343732D01*
X127853371Y-148343732D02*
X127805752Y-148248494D01*
X127805752Y-148248494D02*
X127805752Y-148058018D01*
X127805752Y-148058018D02*
X127853371Y-147962780D01*
X127853371Y-147962780D02*
X127900990Y-147915161D01*
X127900990Y-147915161D02*
X127996228Y-147867542D01*
X127996228Y-147867542D02*
X128281942Y-147867542D01*
X128281942Y-147867542D02*
X128377180Y-147915161D01*
X128377180Y-147915161D02*
X128424800Y-147962780D01*
X128424800Y-147962780D02*
X128472419Y-148058018D01*
X128472419Y-148058018D02*
X128472419Y-148248494D01*
X128472419Y-148248494D02*
X128424800Y-148343732D01*
X128472419Y-147010399D02*
X127948609Y-147010399D01*
X127948609Y-147010399D02*
X127853371Y-147058018D01*
X127853371Y-147058018D02*
X127805752Y-147153256D01*
X127805752Y-147153256D02*
X127805752Y-147343732D01*
X127805752Y-147343732D02*
X127853371Y-147438970D01*
X128424800Y-147010399D02*
X128472419Y-147105637D01*
X128472419Y-147105637D02*
X128472419Y-147343732D01*
X128472419Y-147343732D02*
X128424800Y-147438970D01*
X128424800Y-147438970D02*
X128329561Y-147486589D01*
X128329561Y-147486589D02*
X128234323Y-147486589D01*
X128234323Y-147486589D02*
X128139085Y-147438970D01*
X128139085Y-147438970D02*
X128091466Y-147343732D01*
X128091466Y-147343732D02*
X128091466Y-147105637D01*
X128091466Y-147105637D02*
X128043847Y-147010399D01*
X127805752Y-146677065D02*
X127805752Y-146296113D01*
X127472419Y-146534208D02*
X128329561Y-146534208D01*
X128329561Y-146534208D02*
X128424800Y-146486589D01*
X128424800Y-146486589D02*
X128472419Y-146391351D01*
X128472419Y-146391351D02*
X128472419Y-146296113D01*
X127805752Y-145962779D02*
X128472419Y-145962779D01*
X127900990Y-145962779D02*
X127853371Y-145915160D01*
X127853371Y-145915160D02*
X127805752Y-145819922D01*
X127805752Y-145819922D02*
X127805752Y-145677065D01*
X127805752Y-145677065D02*
X127853371Y-145581827D01*
X127853371Y-145581827D02*
X127948609Y-145534208D01*
X127948609Y-145534208D02*
X128472419Y-145534208D01*
X128424800Y-144677065D02*
X128472419Y-144772303D01*
X128472419Y-144772303D02*
X128472419Y-144962779D01*
X128472419Y-144962779D02*
X128424800Y-145058017D01*
X128424800Y-145058017D02*
X128329561Y-145105636D01*
X128329561Y-145105636D02*
X127948609Y-145105636D01*
X127948609Y-145105636D02*
X127853371Y-145058017D01*
X127853371Y-145058017D02*
X127805752Y-144962779D01*
X127805752Y-144962779D02*
X127805752Y-144772303D01*
X127805752Y-144772303D02*
X127853371Y-144677065D01*
X127853371Y-144677065D02*
X127948609Y-144629446D01*
X127948609Y-144629446D02*
X128043847Y-144629446D01*
X128043847Y-144629446D02*
X128139085Y-145105636D01*
X127424800Y-145058017D02*
X127567657Y-144867541D01*
X127567657Y-144867541D02*
X127424800Y-144677065D01*
X128377180Y-143438969D02*
X128424800Y-143391350D01*
X128424800Y-143391350D02*
X128472419Y-143438969D01*
X128472419Y-143438969D02*
X128424800Y-143486588D01*
X128424800Y-143486588D02*
X128377180Y-143438969D01*
X128377180Y-143438969D02*
X128472419Y-143438969D01*
X127853371Y-143438969D02*
X127900990Y-143391350D01*
X127900990Y-143391350D02*
X127948609Y-143438969D01*
X127948609Y-143438969D02*
X127900990Y-143486588D01*
X127900990Y-143486588D02*
X127853371Y-143438969D01*
X127853371Y-143438969D02*
X127948609Y-143438969D01*
X128853371Y-143058017D02*
X128805752Y-143010398D01*
X128805752Y-143010398D02*
X128662895Y-142915160D01*
X128662895Y-142915160D02*
X128567657Y-142867541D01*
X128567657Y-142867541D02*
X128424800Y-142819922D01*
X128424800Y-142819922D02*
X128186704Y-142772303D01*
X128186704Y-142772303D02*
X127996228Y-142772303D01*
X127996228Y-142772303D02*
X127758133Y-142819922D01*
X127758133Y-142819922D02*
X127615276Y-142867541D01*
X127615276Y-142867541D02*
X127520038Y-142915160D01*
X127520038Y-142915160D02*
X127377180Y-143010398D01*
X127377180Y-143010398D02*
X127329561Y-143058017D01*
D11*
G36*
X85500318Y-184235438D02*
G01*
X85568610Y-184251573D01*
X85623422Y-184276448D01*
X85667184Y-184309448D01*
X85702643Y-184351797D01*
X85728614Y-184402549D01*
X85745041Y-184463410D01*
X85750898Y-184536655D01*
X85744631Y-184611519D01*
X85726923Y-184674585D01*
X85698658Y-184728030D01*
X85659673Y-184773449D01*
X85612135Y-184808479D01*
X85551925Y-184835070D01*
X85476183Y-184852423D01*
X85381359Y-184858750D01*
X85211915Y-184858750D01*
X85211915Y-185230000D01*
X84901116Y-185230000D01*
X84901116Y-184655540D01*
X85211915Y-184655540D01*
X85287752Y-184655540D01*
X85347025Y-184651242D01*
X85387174Y-184640256D01*
X85413415Y-184624583D01*
X85433604Y-184601865D01*
X85445525Y-184575786D01*
X85449624Y-184545204D01*
X85446049Y-184515126D01*
X85435638Y-184488874D01*
X85418178Y-184465519D01*
X85394710Y-184448994D01*
X85357256Y-184437383D01*
X85300026Y-184432791D01*
X85211915Y-184432791D01*
X85211915Y-184655540D01*
X84901116Y-184655540D01*
X84901116Y-184229581D01*
X85415491Y-184229581D01*
X85500318Y-184235438D01*
G37*
G36*
X86326834Y-184493275D02*
G01*
X86402053Y-184509561D01*
X86466241Y-184535266D01*
X86521088Y-184569945D01*
X86567829Y-184613836D01*
X86606637Y-184667117D01*
X86634380Y-184725891D01*
X86651398Y-184791218D01*
X86657283Y-184864490D01*
X86649978Y-184946382D01*
X86628934Y-185018210D01*
X86594602Y-185081888D01*
X86546275Y-185138775D01*
X86500397Y-185175948D01*
X86447868Y-185205367D01*
X86387714Y-185227115D01*
X86318676Y-185240812D01*
X86239262Y-185245631D01*
X86152015Y-185239506D01*
X86077049Y-185222136D01*
X86012382Y-185194503D01*
X85956428Y-185156849D01*
X85908369Y-185109711D01*
X85871723Y-185058115D01*
X85845527Y-185001441D01*
X85829471Y-184938708D01*
X85823927Y-184868642D01*
X85824148Y-184866200D01*
X86102608Y-184866200D01*
X86107773Y-184930578D01*
X86121455Y-184977496D01*
X86141870Y-185011158D01*
X86170697Y-185037468D01*
X86203158Y-185052821D01*
X86240605Y-185058053D01*
X86278555Y-185052844D01*
X86310991Y-185037661D01*
X86339340Y-185011830D01*
X86359214Y-184978610D01*
X86372752Y-184930786D01*
X86377930Y-184863452D01*
X86372842Y-184800995D01*
X86359301Y-184755037D01*
X86338974Y-184721669D01*
X86310476Y-184695436D01*
X86278804Y-184680230D01*
X86242681Y-184675080D01*
X86204321Y-184680381D01*
X86171310Y-184695882D01*
X86142236Y-184722341D01*
X86121556Y-184756199D01*
X86107782Y-184802830D01*
X86102608Y-184866200D01*
X85824148Y-184866200D01*
X85831254Y-184787533D01*
X85852412Y-184716053D01*
X85887033Y-184652343D01*
X85935912Y-184595090D01*
X85982333Y-184557401D01*
X86034813Y-184527737D01*
X86094216Y-184505936D01*
X86161672Y-184492282D01*
X86238529Y-184487501D01*
X86326834Y-184493275D01*
G37*
G36*
X86683722Y-184503133D02*
G01*
X86952817Y-184503133D01*
X87069687Y-184959623D01*
X87217210Y-184503133D01*
X87467925Y-184503133D01*
X87620943Y-184959134D01*
X87737752Y-184503133D01*
X88004832Y-184503133D01*
X87737752Y-185230000D01*
X87490457Y-185230000D01*
X87343606Y-184792622D01*
X87201517Y-185230000D01*
X86952817Y-185230000D01*
X86683722Y-184503133D01*
G37*
G36*
X88549355Y-184493550D02*
G01*
X88629844Y-184509888D01*
X88691826Y-184534396D01*
X88747413Y-184570497D01*
X88792870Y-184615477D01*
X88829152Y-184670195D01*
X88854107Y-184731351D01*
X88870375Y-184807449D01*
X88876290Y-184901737D01*
X88876290Y-184933000D01*
X88318867Y-184933000D01*
X88327034Y-184977317D01*
X88339379Y-185010083D01*
X88355076Y-185033811D01*
X88384689Y-185060312D01*
X88419221Y-185076053D01*
X88460284Y-185081500D01*
X88500100Y-185076410D01*
X88538197Y-185060983D01*
X88560059Y-185044398D01*
X88586680Y-185015066D01*
X88860598Y-185038513D01*
X88813803Y-185107954D01*
X88763319Y-185160097D01*
X88708923Y-185197515D01*
X88647613Y-185222382D01*
X88564623Y-185239275D01*
X88454178Y-185245631D01*
X88358258Y-185240358D01*
X88284041Y-185226171D01*
X88227337Y-185205026D01*
X88176231Y-185173248D01*
X88130719Y-185130681D01*
X88090378Y-185075943D01*
X88060724Y-185014870D01*
X88042448Y-184946076D01*
X88036095Y-184867909D01*
X88041990Y-184800132D01*
X88319539Y-184800132D01*
X88593518Y-184800132D01*
X88583992Y-184748203D01*
X88569147Y-184711402D01*
X88550104Y-184686071D01*
X88524777Y-184667258D01*
X88494398Y-184655709D01*
X88457536Y-184651632D01*
X88415927Y-184657527D01*
X88381216Y-184674597D01*
X88351657Y-184703595D01*
X88331959Y-184741097D01*
X88319539Y-184800132D01*
X88041990Y-184800132D01*
X88043356Y-184784430D01*
X88064157Y-184712009D01*
X88097872Y-184648594D01*
X88145027Y-184592709D01*
X88190097Y-184556079D01*
X88241643Y-184527110D01*
X88300610Y-184505709D01*
X88368222Y-184492238D01*
X88445935Y-184487501D01*
X88549355Y-184493550D01*
G37*
G36*
X89006655Y-184503133D02*
G01*
X89266896Y-184503133D01*
X89266896Y-184621896D01*
X89294759Y-184572096D01*
X89320535Y-184538128D01*
X89344443Y-184516383D01*
X89372395Y-184500671D01*
X89404944Y-184490926D01*
X89443178Y-184487501D01*
X89483394Y-184491281D01*
X89527927Y-184503310D01*
X89577756Y-184524993D01*
X89491660Y-184723012D01*
X89444465Y-184706771D01*
X89413808Y-184702435D01*
X89379786Y-184707568D01*
X89352089Y-184722379D01*
X89329117Y-184747681D01*
X89308023Y-184793163D01*
X89292385Y-184868520D01*
X89286069Y-184986062D01*
X89286069Y-185230000D01*
X89006655Y-185230000D01*
X89006655Y-184503133D01*
G37*
G36*
X93218713Y-135532903D02*
G01*
X93290128Y-135541629D01*
X93341599Y-135554127D01*
X93388926Y-135575182D01*
X93429380Y-135605288D01*
X93463843Y-135645230D01*
X93489157Y-135691568D01*
X93504822Y-135745035D01*
X93510310Y-135807285D01*
X93506109Y-135861813D01*
X93494100Y-135909286D01*
X93474773Y-135950900D01*
X93448270Y-135988453D01*
X93415905Y-136020966D01*
X93377137Y-136048780D01*
X93333204Y-136069488D01*
X93268510Y-136088347D01*
X93319539Y-136108415D01*
X93349110Y-136125472D01*
X93367298Y-136141970D01*
X93398630Y-136178351D01*
X93442044Y-136240877D01*
X93591643Y-136530000D01*
X93241887Y-136530000D01*
X93076535Y-136223963D01*
X93043934Y-136171039D01*
X93020542Y-136146782D01*
X92985041Y-136129438D01*
X92944705Y-136123579D01*
X92917411Y-136123579D01*
X92917411Y-136530000D01*
X92606550Y-136530000D01*
X92606550Y-135936001D01*
X92917411Y-135936001D01*
X93047897Y-135936001D01*
X93129841Y-135922384D01*
X93157691Y-135911488D01*
X93180033Y-135890999D01*
X93194609Y-135864001D01*
X93199511Y-135833053D01*
X93195813Y-135802191D01*
X93185484Y-135777941D01*
X93168736Y-135758742D01*
X93146349Y-135745859D01*
X93109839Y-135736528D01*
X93053332Y-135732791D01*
X92917411Y-135732791D01*
X92917411Y-135936001D01*
X92606550Y-135936001D01*
X92606550Y-135529581D01*
X93122330Y-135529581D01*
X93218713Y-135532903D01*
G37*
G36*
X93690134Y-135529581D02*
G01*
X94519460Y-135529581D01*
X94519460Y-135744515D01*
X94000261Y-135744515D01*
X94000261Y-135904738D01*
X94481847Y-135904738D01*
X94481847Y-136107948D01*
X94000261Y-136107948D01*
X94000261Y-136303342D01*
X94534481Y-136303342D01*
X94534481Y-136530000D01*
X93690134Y-136530000D01*
X93690134Y-135529581D01*
G37*
G36*
X94647016Y-136196791D02*
G01*
X94941451Y-136178290D01*
X94950874Y-136225485D01*
X94964107Y-136261259D01*
X94980408Y-136287894D01*
X95006477Y-136314268D01*
X95037230Y-136333087D01*
X95073602Y-136344770D01*
X95117001Y-136348893D01*
X95160154Y-136345010D01*
X95193458Y-136334413D01*
X95219094Y-136317997D01*
X95239570Y-136295543D01*
X95251162Y-136271947D01*
X95254998Y-136246372D01*
X95251376Y-136222014D01*
X95240371Y-136199169D01*
X95220865Y-136177069D01*
X95195220Y-136160519D01*
X95146138Y-136141239D01*
X95062351Y-136119366D01*
X94957264Y-136091458D01*
X94876651Y-136061513D01*
X94816184Y-136030313D01*
X94772069Y-135998344D01*
X94733511Y-135957589D01*
X94706561Y-135912604D01*
X94690250Y-135862476D01*
X94684630Y-135805819D01*
X94689532Y-135755862D01*
X94704260Y-135707718D01*
X94729387Y-135660556D01*
X94763149Y-135619289D01*
X94807422Y-135583496D01*
X94863965Y-135553089D01*
X94925246Y-135532782D01*
X95005828Y-135519064D01*
X95110223Y-135513949D01*
X95208319Y-135519295D01*
X95287782Y-135533982D01*
X95351745Y-135556391D01*
X95402887Y-135585512D01*
X95446724Y-135624911D01*
X95481344Y-135674629D01*
X95506974Y-135736529D01*
X95522810Y-135813269D01*
X95231123Y-135830488D01*
X95219626Y-135786717D01*
X95203151Y-135754515D01*
X95182274Y-135731386D01*
X95155778Y-135714854D01*
X95122148Y-135704273D01*
X95079448Y-135700429D01*
X95029906Y-135706767D01*
X94998115Y-135723204D01*
X94977492Y-135748703D01*
X94970821Y-135778525D01*
X94976136Y-135800475D01*
X94993353Y-135821268D01*
X95023471Y-135837798D01*
X95097217Y-135857965D01*
X95233375Y-135890774D01*
X95326931Y-135920123D01*
X95387866Y-135946015D01*
X95443199Y-135979612D01*
X95485088Y-136016430D01*
X95515605Y-136056535D01*
X95537709Y-136101964D01*
X95551050Y-136150862D01*
X95555600Y-136204118D01*
X95549661Y-136266488D01*
X95532022Y-136325096D01*
X95502294Y-136381011D01*
X95462501Y-136430216D01*
X95413277Y-136471006D01*
X95353367Y-136503804D01*
X95288254Y-136525985D01*
X95208793Y-136540414D01*
X95112238Y-136545631D01*
X95003605Y-136540480D01*
X94917545Y-136526496D01*
X94850156Y-136505524D01*
X94798037Y-136478857D01*
X94758391Y-136447140D01*
X94714911Y-136395095D01*
X94682008Y-136336749D01*
X94659284Y-136271102D01*
X94647016Y-136196791D01*
G37*
G36*
X95710511Y-135529581D02*
G01*
X96539837Y-135529581D01*
X96539837Y-135744515D01*
X96020638Y-135744515D01*
X96020638Y-135904738D01*
X96502224Y-135904738D01*
X96502224Y-136107948D01*
X96020638Y-136107948D01*
X96020638Y-136303342D01*
X96554858Y-136303342D01*
X96554858Y-136530000D01*
X95710511Y-136530000D01*
X95710511Y-135529581D01*
G37*
G36*
X96651029Y-135529581D02*
G01*
X97591669Y-135529581D01*
X97591669Y-135775778D01*
X97276046Y-135775778D01*
X97276046Y-136530000D01*
X96966591Y-136530000D01*
X96966591Y-135775778D01*
X96651029Y-135775778D01*
X96651029Y-135529581D01*
G37*
D12*
X117938095Y-165054819D02*
X117938095Y-165864342D01*
X117938095Y-165864342D02*
X117985714Y-165959580D01*
X117985714Y-165959580D02*
X118033333Y-166007200D01*
X118033333Y-166007200D02*
X118128571Y-166054819D01*
X118128571Y-166054819D02*
X118319047Y-166054819D01*
X118319047Y-166054819D02*
X118414285Y-166007200D01*
X118414285Y-166007200D02*
X118461904Y-165959580D01*
X118461904Y-165959580D02*
X118509523Y-165864342D01*
X118509523Y-165864342D02*
X118509523Y-165054819D01*
X119461904Y-165054819D02*
X118985714Y-165054819D01*
X118985714Y-165054819D02*
X118938095Y-165531009D01*
X118938095Y-165531009D02*
X118985714Y-165483390D01*
X118985714Y-165483390D02*
X119080952Y-165435771D01*
X119080952Y-165435771D02*
X119319047Y-165435771D01*
X119319047Y-165435771D02*
X119414285Y-165483390D01*
X119414285Y-165483390D02*
X119461904Y-165531009D01*
X119461904Y-165531009D02*
X119509523Y-165626247D01*
X119509523Y-165626247D02*
X119509523Y-165864342D01*
X119509523Y-165864342D02*
X119461904Y-165959580D01*
X119461904Y-165959580D02*
X119414285Y-166007200D01*
X119414285Y-166007200D02*
X119319047Y-166054819D01*
X119319047Y-166054819D02*
X119080952Y-166054819D01*
X119080952Y-166054819D02*
X118985714Y-166007200D01*
X118985714Y-166007200D02*
X118938095Y-165959580D01*
X97009819Y-146071904D02*
X97819342Y-146071904D01*
X97819342Y-146071904D02*
X97914580Y-146024285D01*
X97914580Y-146024285D02*
X97962200Y-145976666D01*
X97962200Y-145976666D02*
X98009819Y-145881428D01*
X98009819Y-145881428D02*
X98009819Y-145690952D01*
X98009819Y-145690952D02*
X97962200Y-145595714D01*
X97962200Y-145595714D02*
X97914580Y-145548095D01*
X97914580Y-145548095D02*
X97819342Y-145500476D01*
X97819342Y-145500476D02*
X97009819Y-145500476D01*
X98009819Y-144500476D02*
X98009819Y-145071904D01*
X98009819Y-144786190D02*
X97009819Y-144786190D01*
X97009819Y-144786190D02*
X97152676Y-144881428D01*
X97152676Y-144881428D02*
X97247914Y-144976666D01*
X97247914Y-144976666D02*
X97295533Y-145071904D01*
X95738095Y-162854819D02*
X95738095Y-163664342D01*
X95738095Y-163664342D02*
X95785714Y-163759580D01*
X95785714Y-163759580D02*
X95833333Y-163807200D01*
X95833333Y-163807200D02*
X95928571Y-163854819D01*
X95928571Y-163854819D02*
X96119047Y-163854819D01*
X96119047Y-163854819D02*
X96214285Y-163807200D01*
X96214285Y-163807200D02*
X96261904Y-163759580D01*
X96261904Y-163759580D02*
X96309523Y-163664342D01*
X96309523Y-163664342D02*
X96309523Y-162854819D01*
X97214285Y-163188152D02*
X97214285Y-163854819D01*
X96976190Y-162807200D02*
X96738095Y-163521485D01*
X96738095Y-163521485D02*
X97357142Y-163521485D01*
X111554819Y-175066666D02*
X111554819Y-175542856D01*
X111554819Y-175542856D02*
X110554819Y-175542856D01*
X111554819Y-174209523D02*
X111554819Y-174780951D01*
X111554819Y-174495237D02*
X110554819Y-174495237D01*
X110554819Y-174495237D02*
X110697676Y-174590475D01*
X110697676Y-174590475D02*
X110792914Y-174685713D01*
X110792914Y-174685713D02*
X110840533Y-174780951D01*
X91854819Y-163066666D02*
X91378628Y-163399999D01*
X91854819Y-163638094D02*
X90854819Y-163638094D01*
X90854819Y-163638094D02*
X90854819Y-163257142D01*
X90854819Y-163257142D02*
X90902438Y-163161904D01*
X90902438Y-163161904D02*
X90950057Y-163114285D01*
X90950057Y-163114285D02*
X91045295Y-163066666D01*
X91045295Y-163066666D02*
X91188152Y-163066666D01*
X91188152Y-163066666D02*
X91283390Y-163114285D01*
X91283390Y-163114285D02*
X91331009Y-163161904D01*
X91331009Y-163161904D02*
X91378628Y-163257142D01*
X91378628Y-163257142D02*
X91378628Y-163638094D01*
X91188152Y-162209523D02*
X91854819Y-162209523D01*
X90807200Y-162447618D02*
X91521485Y-162685713D01*
X91521485Y-162685713D02*
X91521485Y-162066666D01*
X102159580Y-168066666D02*
X102207200Y-168114285D01*
X102207200Y-168114285D02*
X102254819Y-168257142D01*
X102254819Y-168257142D02*
X102254819Y-168352380D01*
X102254819Y-168352380D02*
X102207200Y-168495237D01*
X102207200Y-168495237D02*
X102111961Y-168590475D01*
X102111961Y-168590475D02*
X102016723Y-168638094D01*
X102016723Y-168638094D02*
X101826247Y-168685713D01*
X101826247Y-168685713D02*
X101683390Y-168685713D01*
X101683390Y-168685713D02*
X101492914Y-168638094D01*
X101492914Y-168638094D02*
X101397676Y-168590475D01*
X101397676Y-168590475D02*
X101302438Y-168495237D01*
X101302438Y-168495237D02*
X101254819Y-168352380D01*
X101254819Y-168352380D02*
X101254819Y-168257142D01*
X101254819Y-168257142D02*
X101302438Y-168114285D01*
X101302438Y-168114285D02*
X101350057Y-168066666D01*
X101350057Y-167685713D02*
X101302438Y-167638094D01*
X101302438Y-167638094D02*
X101254819Y-167542856D01*
X101254819Y-167542856D02*
X101254819Y-167304761D01*
X101254819Y-167304761D02*
X101302438Y-167209523D01*
X101302438Y-167209523D02*
X101350057Y-167161904D01*
X101350057Y-167161904D02*
X101445295Y-167114285D01*
X101445295Y-167114285D02*
X101540533Y-167114285D01*
X101540533Y-167114285D02*
X101683390Y-167161904D01*
X101683390Y-167161904D02*
X102254819Y-167733332D01*
X102254819Y-167733332D02*
X102254819Y-167114285D01*
X100433333Y-171659580D02*
X100385714Y-171707200D01*
X100385714Y-171707200D02*
X100242857Y-171754819D01*
X100242857Y-171754819D02*
X100147619Y-171754819D01*
X100147619Y-171754819D02*
X100004762Y-171707200D01*
X100004762Y-171707200D02*
X99909524Y-171611961D01*
X99909524Y-171611961D02*
X99861905Y-171516723D01*
X99861905Y-171516723D02*
X99814286Y-171326247D01*
X99814286Y-171326247D02*
X99814286Y-171183390D01*
X99814286Y-171183390D02*
X99861905Y-170992914D01*
X99861905Y-170992914D02*
X99909524Y-170897676D01*
X99909524Y-170897676D02*
X100004762Y-170802438D01*
X100004762Y-170802438D02*
X100147619Y-170754819D01*
X100147619Y-170754819D02*
X100242857Y-170754819D01*
X100242857Y-170754819D02*
X100385714Y-170802438D01*
X100385714Y-170802438D02*
X100433333Y-170850057D01*
X101004762Y-171183390D02*
X100909524Y-171135771D01*
X100909524Y-171135771D02*
X100861905Y-171088152D01*
X100861905Y-171088152D02*
X100814286Y-170992914D01*
X100814286Y-170992914D02*
X100814286Y-170945295D01*
X100814286Y-170945295D02*
X100861905Y-170850057D01*
X100861905Y-170850057D02*
X100909524Y-170802438D01*
X100909524Y-170802438D02*
X101004762Y-170754819D01*
X101004762Y-170754819D02*
X101195238Y-170754819D01*
X101195238Y-170754819D02*
X101290476Y-170802438D01*
X101290476Y-170802438D02*
X101338095Y-170850057D01*
X101338095Y-170850057D02*
X101385714Y-170945295D01*
X101385714Y-170945295D02*
X101385714Y-170992914D01*
X101385714Y-170992914D02*
X101338095Y-171088152D01*
X101338095Y-171088152D02*
X101290476Y-171135771D01*
X101290476Y-171135771D02*
X101195238Y-171183390D01*
X101195238Y-171183390D02*
X101004762Y-171183390D01*
X101004762Y-171183390D02*
X100909524Y-171231009D01*
X100909524Y-171231009D02*
X100861905Y-171278628D01*
X100861905Y-171278628D02*
X100814286Y-171373866D01*
X100814286Y-171373866D02*
X100814286Y-171564342D01*
X100814286Y-171564342D02*
X100861905Y-171659580D01*
X100861905Y-171659580D02*
X100909524Y-171707200D01*
X100909524Y-171707200D02*
X101004762Y-171754819D01*
X101004762Y-171754819D02*
X101195238Y-171754819D01*
X101195238Y-171754819D02*
X101290476Y-171707200D01*
X101290476Y-171707200D02*
X101338095Y-171659580D01*
X101338095Y-171659580D02*
X101385714Y-171564342D01*
X101385714Y-171564342D02*
X101385714Y-171373866D01*
X101385714Y-171373866D02*
X101338095Y-171278628D01*
X101338095Y-171278628D02*
X101290476Y-171231009D01*
X101290476Y-171231009D02*
X101195238Y-171183390D01*
X93354819Y-163066666D02*
X92878628Y-163399999D01*
X93354819Y-163638094D02*
X92354819Y-163638094D01*
X92354819Y-163638094D02*
X92354819Y-163257142D01*
X92354819Y-163257142D02*
X92402438Y-163161904D01*
X92402438Y-163161904D02*
X92450057Y-163114285D01*
X92450057Y-163114285D02*
X92545295Y-163066666D01*
X92545295Y-163066666D02*
X92688152Y-163066666D01*
X92688152Y-163066666D02*
X92783390Y-163114285D01*
X92783390Y-163114285D02*
X92831009Y-163161904D01*
X92831009Y-163161904D02*
X92878628Y-163257142D01*
X92878628Y-163257142D02*
X92878628Y-163638094D01*
X92354819Y-162733332D02*
X92354819Y-162114285D01*
X92354819Y-162114285D02*
X92735771Y-162447618D01*
X92735771Y-162447618D02*
X92735771Y-162304761D01*
X92735771Y-162304761D02*
X92783390Y-162209523D01*
X92783390Y-162209523D02*
X92831009Y-162161904D01*
X92831009Y-162161904D02*
X92926247Y-162114285D01*
X92926247Y-162114285D02*
X93164342Y-162114285D01*
X93164342Y-162114285D02*
X93259580Y-162161904D01*
X93259580Y-162161904D02*
X93307200Y-162209523D01*
X93307200Y-162209523D02*
X93354819Y-162304761D01*
X93354819Y-162304761D02*
X93354819Y-162590475D01*
X93354819Y-162590475D02*
X93307200Y-162685713D01*
X93307200Y-162685713D02*
X93259580Y-162733332D01*
X124632200Y-136733332D02*
X124679819Y-136590475D01*
X124679819Y-136590475D02*
X124679819Y-136352380D01*
X124679819Y-136352380D02*
X124632200Y-136257142D01*
X124632200Y-136257142D02*
X124584580Y-136209523D01*
X124584580Y-136209523D02*
X124489342Y-136161904D01*
X124489342Y-136161904D02*
X124394104Y-136161904D01*
X124394104Y-136161904D02*
X124298866Y-136209523D01*
X124298866Y-136209523D02*
X124251247Y-136257142D01*
X124251247Y-136257142D02*
X124203628Y-136352380D01*
X124203628Y-136352380D02*
X124156009Y-136542856D01*
X124156009Y-136542856D02*
X124108390Y-136638094D01*
X124108390Y-136638094D02*
X124060771Y-136685713D01*
X124060771Y-136685713D02*
X123965533Y-136733332D01*
X123965533Y-136733332D02*
X123870295Y-136733332D01*
X123870295Y-136733332D02*
X123775057Y-136685713D01*
X123775057Y-136685713D02*
X123727438Y-136638094D01*
X123727438Y-136638094D02*
X123679819Y-136542856D01*
X123679819Y-136542856D02*
X123679819Y-136304761D01*
X123679819Y-136304761D02*
X123727438Y-136161904D01*
X123679819Y-135828570D02*
X124679819Y-135590475D01*
X124679819Y-135590475D02*
X123965533Y-135399999D01*
X123965533Y-135399999D02*
X124679819Y-135209523D01*
X124679819Y-135209523D02*
X123679819Y-134971428D01*
X124013152Y-134161904D02*
X124679819Y-134161904D01*
X123632200Y-134399999D02*
X124346485Y-134638094D01*
X124346485Y-134638094D02*
X124346485Y-134019047D01*
X100633333Y-177759580D02*
X100585714Y-177807200D01*
X100585714Y-177807200D02*
X100442857Y-177854819D01*
X100442857Y-177854819D02*
X100347619Y-177854819D01*
X100347619Y-177854819D02*
X100204762Y-177807200D01*
X100204762Y-177807200D02*
X100109524Y-177711961D01*
X100109524Y-177711961D02*
X100061905Y-177616723D01*
X100061905Y-177616723D02*
X100014286Y-177426247D01*
X100014286Y-177426247D02*
X100014286Y-177283390D01*
X100014286Y-177283390D02*
X100061905Y-177092914D01*
X100061905Y-177092914D02*
X100109524Y-176997676D01*
X100109524Y-176997676D02*
X100204762Y-176902438D01*
X100204762Y-176902438D02*
X100347619Y-176854819D01*
X100347619Y-176854819D02*
X100442857Y-176854819D01*
X100442857Y-176854819D02*
X100585714Y-176902438D01*
X100585714Y-176902438D02*
X100633333Y-176950057D01*
X101490476Y-177188152D02*
X101490476Y-177854819D01*
X101252381Y-176807200D02*
X101014286Y-177521485D01*
X101014286Y-177521485D02*
X101633333Y-177521485D01*
X93016667Y-180777200D02*
X93159524Y-180824819D01*
X93159524Y-180824819D02*
X93397619Y-180824819D01*
X93397619Y-180824819D02*
X93492857Y-180777200D01*
X93492857Y-180777200D02*
X93540476Y-180729580D01*
X93540476Y-180729580D02*
X93588095Y-180634342D01*
X93588095Y-180634342D02*
X93588095Y-180539104D01*
X93588095Y-180539104D02*
X93540476Y-180443866D01*
X93540476Y-180443866D02*
X93492857Y-180396247D01*
X93492857Y-180396247D02*
X93397619Y-180348628D01*
X93397619Y-180348628D02*
X93207143Y-180301009D01*
X93207143Y-180301009D02*
X93111905Y-180253390D01*
X93111905Y-180253390D02*
X93064286Y-180205771D01*
X93064286Y-180205771D02*
X93016667Y-180110533D01*
X93016667Y-180110533D02*
X93016667Y-180015295D01*
X93016667Y-180015295D02*
X93064286Y-179920057D01*
X93064286Y-179920057D02*
X93111905Y-179872438D01*
X93111905Y-179872438D02*
X93207143Y-179824819D01*
X93207143Y-179824819D02*
X93445238Y-179824819D01*
X93445238Y-179824819D02*
X93588095Y-179872438D01*
X93921429Y-179824819D02*
X94159524Y-180824819D01*
X94159524Y-180824819D02*
X94350000Y-180110533D01*
X94350000Y-180110533D02*
X94540476Y-180824819D01*
X94540476Y-180824819D02*
X94778572Y-179824819D01*
X95683333Y-180824819D02*
X95111905Y-180824819D01*
X95397619Y-180824819D02*
X95397619Y-179824819D01*
X95397619Y-179824819D02*
X95302381Y-179967676D01*
X95302381Y-179967676D02*
X95207143Y-180062914D01*
X95207143Y-180062914D02*
X95111905Y-180110533D01*
X89433333Y-169759580D02*
X89385714Y-169807200D01*
X89385714Y-169807200D02*
X89242857Y-169854819D01*
X89242857Y-169854819D02*
X89147619Y-169854819D01*
X89147619Y-169854819D02*
X89004762Y-169807200D01*
X89004762Y-169807200D02*
X88909524Y-169711961D01*
X88909524Y-169711961D02*
X88861905Y-169616723D01*
X88861905Y-169616723D02*
X88814286Y-169426247D01*
X88814286Y-169426247D02*
X88814286Y-169283390D01*
X88814286Y-169283390D02*
X88861905Y-169092914D01*
X88861905Y-169092914D02*
X88909524Y-168997676D01*
X88909524Y-168997676D02*
X89004762Y-168902438D01*
X89004762Y-168902438D02*
X89147619Y-168854819D01*
X89147619Y-168854819D02*
X89242857Y-168854819D01*
X89242857Y-168854819D02*
X89385714Y-168902438D01*
X89385714Y-168902438D02*
X89433333Y-168950057D01*
X89909524Y-169854819D02*
X90100000Y-169854819D01*
X90100000Y-169854819D02*
X90195238Y-169807200D01*
X90195238Y-169807200D02*
X90242857Y-169759580D01*
X90242857Y-169759580D02*
X90338095Y-169616723D01*
X90338095Y-169616723D02*
X90385714Y-169426247D01*
X90385714Y-169426247D02*
X90385714Y-169045295D01*
X90385714Y-169045295D02*
X90338095Y-168950057D01*
X90338095Y-168950057D02*
X90290476Y-168902438D01*
X90290476Y-168902438D02*
X90195238Y-168854819D01*
X90195238Y-168854819D02*
X90004762Y-168854819D01*
X90004762Y-168854819D02*
X89909524Y-168902438D01*
X89909524Y-168902438D02*
X89861905Y-168950057D01*
X89861905Y-168950057D02*
X89814286Y-169045295D01*
X89814286Y-169045295D02*
X89814286Y-169283390D01*
X89814286Y-169283390D02*
X89861905Y-169378628D01*
X89861905Y-169378628D02*
X89909524Y-169426247D01*
X89909524Y-169426247D02*
X90004762Y-169473866D01*
X90004762Y-169473866D02*
X90195238Y-169473866D01*
X90195238Y-169473866D02*
X90290476Y-169426247D01*
X90290476Y-169426247D02*
X90338095Y-169378628D01*
X90338095Y-169378628D02*
X90385714Y-169283390D01*
X106061905Y-167854819D02*
X106061905Y-166854819D01*
X106061905Y-166854819D02*
X106300000Y-166854819D01*
X106300000Y-166854819D02*
X106442857Y-166902438D01*
X106442857Y-166902438D02*
X106538095Y-166997676D01*
X106538095Y-166997676D02*
X106585714Y-167092914D01*
X106585714Y-167092914D02*
X106633333Y-167283390D01*
X106633333Y-167283390D02*
X106633333Y-167426247D01*
X106633333Y-167426247D02*
X106585714Y-167616723D01*
X106585714Y-167616723D02*
X106538095Y-167711961D01*
X106538095Y-167711961D02*
X106442857Y-167807200D01*
X106442857Y-167807200D02*
X106300000Y-167854819D01*
X106300000Y-167854819D02*
X106061905Y-167854819D01*
X107585714Y-167854819D02*
X107014286Y-167854819D01*
X107300000Y-167854819D02*
X107300000Y-166854819D01*
X107300000Y-166854819D02*
X107204762Y-166997676D01*
X107204762Y-166997676D02*
X107109524Y-167092914D01*
X107109524Y-167092914D02*
X107014286Y-167140533D01*
X102133333Y-185059580D02*
X102085714Y-185107200D01*
X102085714Y-185107200D02*
X101942857Y-185154819D01*
X101942857Y-185154819D02*
X101847619Y-185154819D01*
X101847619Y-185154819D02*
X101704762Y-185107200D01*
X101704762Y-185107200D02*
X101609524Y-185011961D01*
X101609524Y-185011961D02*
X101561905Y-184916723D01*
X101561905Y-184916723D02*
X101514286Y-184726247D01*
X101514286Y-184726247D02*
X101514286Y-184583390D01*
X101514286Y-184583390D02*
X101561905Y-184392914D01*
X101561905Y-184392914D02*
X101609524Y-184297676D01*
X101609524Y-184297676D02*
X101704762Y-184202438D01*
X101704762Y-184202438D02*
X101847619Y-184154819D01*
X101847619Y-184154819D02*
X101942857Y-184154819D01*
X101942857Y-184154819D02*
X102085714Y-184202438D01*
X102085714Y-184202438D02*
X102133333Y-184250057D01*
X103038095Y-184154819D02*
X102561905Y-184154819D01*
X102561905Y-184154819D02*
X102514286Y-184631009D01*
X102514286Y-184631009D02*
X102561905Y-184583390D01*
X102561905Y-184583390D02*
X102657143Y-184535771D01*
X102657143Y-184535771D02*
X102895238Y-184535771D01*
X102895238Y-184535771D02*
X102990476Y-184583390D01*
X102990476Y-184583390D02*
X103038095Y-184631009D01*
X103038095Y-184631009D02*
X103085714Y-184726247D01*
X103085714Y-184726247D02*
X103085714Y-184964342D01*
X103085714Y-184964342D02*
X103038095Y-185059580D01*
X103038095Y-185059580D02*
X102990476Y-185107200D01*
X102990476Y-185107200D02*
X102895238Y-185154819D01*
X102895238Y-185154819D02*
X102657143Y-185154819D01*
X102657143Y-185154819D02*
X102561905Y-185107200D01*
X102561905Y-185107200D02*
X102514286Y-185059580D01*
X94604761Y-178450057D02*
X94509523Y-178402438D01*
X94509523Y-178402438D02*
X94414285Y-178307200D01*
X94414285Y-178307200D02*
X94271428Y-178164342D01*
X94271428Y-178164342D02*
X94176190Y-178116723D01*
X94176190Y-178116723D02*
X94080952Y-178116723D01*
X94128571Y-178354819D02*
X94033333Y-178307200D01*
X94033333Y-178307200D02*
X93938095Y-178211961D01*
X93938095Y-178211961D02*
X93890476Y-178021485D01*
X93890476Y-178021485D02*
X93890476Y-177688152D01*
X93890476Y-177688152D02*
X93938095Y-177497676D01*
X93938095Y-177497676D02*
X94033333Y-177402438D01*
X94033333Y-177402438D02*
X94128571Y-177354819D01*
X94128571Y-177354819D02*
X94319047Y-177354819D01*
X94319047Y-177354819D02*
X94414285Y-177402438D01*
X94414285Y-177402438D02*
X94509523Y-177497676D01*
X94509523Y-177497676D02*
X94557142Y-177688152D01*
X94557142Y-177688152D02*
X94557142Y-178021485D01*
X94557142Y-178021485D02*
X94509523Y-178211961D01*
X94509523Y-178211961D02*
X94414285Y-178307200D01*
X94414285Y-178307200D02*
X94319047Y-178354819D01*
X94319047Y-178354819D02*
X94128571Y-178354819D01*
X95509523Y-178354819D02*
X94938095Y-178354819D01*
X95223809Y-178354819D02*
X95223809Y-177354819D01*
X95223809Y-177354819D02*
X95128571Y-177497676D01*
X95128571Y-177497676D02*
X95033333Y-177592914D01*
X95033333Y-177592914D02*
X94938095Y-177640533D01*
X95059580Y-133366666D02*
X95107200Y-133414285D01*
X95107200Y-133414285D02*
X95154819Y-133557142D01*
X95154819Y-133557142D02*
X95154819Y-133652380D01*
X95154819Y-133652380D02*
X95107200Y-133795237D01*
X95107200Y-133795237D02*
X95011961Y-133890475D01*
X95011961Y-133890475D02*
X94916723Y-133938094D01*
X94916723Y-133938094D02*
X94726247Y-133985713D01*
X94726247Y-133985713D02*
X94583390Y-133985713D01*
X94583390Y-133985713D02*
X94392914Y-133938094D01*
X94392914Y-133938094D02*
X94297676Y-133890475D01*
X94297676Y-133890475D02*
X94202438Y-133795237D01*
X94202438Y-133795237D02*
X94154819Y-133652380D01*
X94154819Y-133652380D02*
X94154819Y-133557142D01*
X94154819Y-133557142D02*
X94202438Y-133414285D01*
X94202438Y-133414285D02*
X94250057Y-133366666D01*
X94154819Y-133033332D02*
X94154819Y-132366666D01*
X94154819Y-132366666D02*
X95154819Y-132795237D01*
X84708333Y-142024819D02*
X84375000Y-141548628D01*
X84136905Y-142024819D02*
X84136905Y-141024819D01*
X84136905Y-141024819D02*
X84517857Y-141024819D01*
X84517857Y-141024819D02*
X84613095Y-141072438D01*
X84613095Y-141072438D02*
X84660714Y-141120057D01*
X84660714Y-141120057D02*
X84708333Y-141215295D01*
X84708333Y-141215295D02*
X84708333Y-141358152D01*
X84708333Y-141358152D02*
X84660714Y-141453390D01*
X84660714Y-141453390D02*
X84613095Y-141501009D01*
X84613095Y-141501009D02*
X84517857Y-141548628D01*
X84517857Y-141548628D02*
X84136905Y-141548628D01*
X85041667Y-141024819D02*
X85708333Y-141024819D01*
X85708333Y-141024819D02*
X85279762Y-142024819D01*
X112238095Y-149354819D02*
X112238095Y-150164342D01*
X112238095Y-150164342D02*
X112285714Y-150259580D01*
X112285714Y-150259580D02*
X112333333Y-150307200D01*
X112333333Y-150307200D02*
X112428571Y-150354819D01*
X112428571Y-150354819D02*
X112619047Y-150354819D01*
X112619047Y-150354819D02*
X112714285Y-150307200D01*
X112714285Y-150307200D02*
X112761904Y-150259580D01*
X112761904Y-150259580D02*
X112809523Y-150164342D01*
X112809523Y-150164342D02*
X112809523Y-149354819D01*
X113714285Y-149354819D02*
X113523809Y-149354819D01*
X113523809Y-149354819D02*
X113428571Y-149402438D01*
X113428571Y-149402438D02*
X113380952Y-149450057D01*
X113380952Y-149450057D02*
X113285714Y-149592914D01*
X113285714Y-149592914D02*
X113238095Y-149783390D01*
X113238095Y-149783390D02*
X113238095Y-150164342D01*
X113238095Y-150164342D02*
X113285714Y-150259580D01*
X113285714Y-150259580D02*
X113333333Y-150307200D01*
X113333333Y-150307200D02*
X113428571Y-150354819D01*
X113428571Y-150354819D02*
X113619047Y-150354819D01*
X113619047Y-150354819D02*
X113714285Y-150307200D01*
X113714285Y-150307200D02*
X113761904Y-150259580D01*
X113761904Y-150259580D02*
X113809523Y-150164342D01*
X113809523Y-150164342D02*
X113809523Y-149926247D01*
X113809523Y-149926247D02*
X113761904Y-149831009D01*
X113761904Y-149831009D02*
X113714285Y-149783390D01*
X113714285Y-149783390D02*
X113619047Y-149735771D01*
X113619047Y-149735771D02*
X113428571Y-149735771D01*
X113428571Y-149735771D02*
X113333333Y-149783390D01*
X113333333Y-149783390D02*
X113285714Y-149831009D01*
X113285714Y-149831009D02*
X113238095Y-149926247D01*
X97254819Y-133266666D02*
X96778628Y-133599999D01*
X97254819Y-133838094D02*
X96254819Y-133838094D01*
X96254819Y-133838094D02*
X96254819Y-133457142D01*
X96254819Y-133457142D02*
X96302438Y-133361904D01*
X96302438Y-133361904D02*
X96350057Y-133314285D01*
X96350057Y-133314285D02*
X96445295Y-133266666D01*
X96445295Y-133266666D02*
X96588152Y-133266666D01*
X96588152Y-133266666D02*
X96683390Y-133314285D01*
X96683390Y-133314285D02*
X96731009Y-133361904D01*
X96731009Y-133361904D02*
X96778628Y-133457142D01*
X96778628Y-133457142D02*
X96778628Y-133838094D01*
X96254819Y-132361904D02*
X96254819Y-132838094D01*
X96254819Y-132838094D02*
X96731009Y-132885713D01*
X96731009Y-132885713D02*
X96683390Y-132838094D01*
X96683390Y-132838094D02*
X96635771Y-132742856D01*
X96635771Y-132742856D02*
X96635771Y-132504761D01*
X96635771Y-132504761D02*
X96683390Y-132409523D01*
X96683390Y-132409523D02*
X96731009Y-132361904D01*
X96731009Y-132361904D02*
X96826247Y-132314285D01*
X96826247Y-132314285D02*
X97064342Y-132314285D01*
X97064342Y-132314285D02*
X97159580Y-132361904D01*
X97159580Y-132361904D02*
X97207200Y-132409523D01*
X97207200Y-132409523D02*
X97254819Y-132504761D01*
X97254819Y-132504761D02*
X97254819Y-132742856D01*
X97254819Y-132742856D02*
X97207200Y-132838094D01*
X97207200Y-132838094D02*
X97159580Y-132885713D01*
X93766667Y-141407200D02*
X93909524Y-141454819D01*
X93909524Y-141454819D02*
X94147619Y-141454819D01*
X94147619Y-141454819D02*
X94242857Y-141407200D01*
X94242857Y-141407200D02*
X94290476Y-141359580D01*
X94290476Y-141359580D02*
X94338095Y-141264342D01*
X94338095Y-141264342D02*
X94338095Y-141169104D01*
X94338095Y-141169104D02*
X94290476Y-141073866D01*
X94290476Y-141073866D02*
X94242857Y-141026247D01*
X94242857Y-141026247D02*
X94147619Y-140978628D01*
X94147619Y-140978628D02*
X93957143Y-140931009D01*
X93957143Y-140931009D02*
X93861905Y-140883390D01*
X93861905Y-140883390D02*
X93814286Y-140835771D01*
X93814286Y-140835771D02*
X93766667Y-140740533D01*
X93766667Y-140740533D02*
X93766667Y-140645295D01*
X93766667Y-140645295D02*
X93814286Y-140550057D01*
X93814286Y-140550057D02*
X93861905Y-140502438D01*
X93861905Y-140502438D02*
X93957143Y-140454819D01*
X93957143Y-140454819D02*
X94195238Y-140454819D01*
X94195238Y-140454819D02*
X94338095Y-140502438D01*
X94671429Y-140454819D02*
X94909524Y-141454819D01*
X94909524Y-141454819D02*
X95100000Y-140740533D01*
X95100000Y-140740533D02*
X95290476Y-141454819D01*
X95290476Y-141454819D02*
X95528572Y-140454819D01*
X95861905Y-140550057D02*
X95909524Y-140502438D01*
X95909524Y-140502438D02*
X96004762Y-140454819D01*
X96004762Y-140454819D02*
X96242857Y-140454819D01*
X96242857Y-140454819D02*
X96338095Y-140502438D01*
X96338095Y-140502438D02*
X96385714Y-140550057D01*
X96385714Y-140550057D02*
X96433333Y-140645295D01*
X96433333Y-140645295D02*
X96433333Y-140740533D01*
X96433333Y-140740533D02*
X96385714Y-140883390D01*
X96385714Y-140883390D02*
X95814286Y-141454819D01*
X95814286Y-141454819D02*
X96433333Y-141454819D01*
X116094819Y-149116666D02*
X115618628Y-149449999D01*
X116094819Y-149688094D02*
X115094819Y-149688094D01*
X115094819Y-149688094D02*
X115094819Y-149307142D01*
X115094819Y-149307142D02*
X115142438Y-149211904D01*
X115142438Y-149211904D02*
X115190057Y-149164285D01*
X115190057Y-149164285D02*
X115285295Y-149116666D01*
X115285295Y-149116666D02*
X115428152Y-149116666D01*
X115428152Y-149116666D02*
X115523390Y-149164285D01*
X115523390Y-149164285D02*
X115571009Y-149211904D01*
X115571009Y-149211904D02*
X115618628Y-149307142D01*
X115618628Y-149307142D02*
X115618628Y-149688094D01*
X115094819Y-148259523D02*
X115094819Y-148449999D01*
X115094819Y-148449999D02*
X115142438Y-148545237D01*
X115142438Y-148545237D02*
X115190057Y-148592856D01*
X115190057Y-148592856D02*
X115332914Y-148688094D01*
X115332914Y-148688094D02*
X115523390Y-148735713D01*
X115523390Y-148735713D02*
X115904342Y-148735713D01*
X115904342Y-148735713D02*
X115999580Y-148688094D01*
X115999580Y-148688094D02*
X116047200Y-148640475D01*
X116047200Y-148640475D02*
X116094819Y-148545237D01*
X116094819Y-148545237D02*
X116094819Y-148354761D01*
X116094819Y-148354761D02*
X116047200Y-148259523D01*
X116047200Y-148259523D02*
X115999580Y-148211904D01*
X115999580Y-148211904D02*
X115904342Y-148164285D01*
X115904342Y-148164285D02*
X115666247Y-148164285D01*
X115666247Y-148164285D02*
X115571009Y-148211904D01*
X115571009Y-148211904D02*
X115523390Y-148259523D01*
X115523390Y-148259523D02*
X115475771Y-148354761D01*
X115475771Y-148354761D02*
X115475771Y-148545237D01*
X115475771Y-148545237D02*
X115523390Y-148640475D01*
X115523390Y-148640475D02*
X115571009Y-148688094D01*
X115571009Y-148688094D02*
X115666247Y-148735713D01*
X89433333Y-171354819D02*
X89100000Y-170878628D01*
X88861905Y-171354819D02*
X88861905Y-170354819D01*
X88861905Y-170354819D02*
X89242857Y-170354819D01*
X89242857Y-170354819D02*
X89338095Y-170402438D01*
X89338095Y-170402438D02*
X89385714Y-170450057D01*
X89385714Y-170450057D02*
X89433333Y-170545295D01*
X89433333Y-170545295D02*
X89433333Y-170688152D01*
X89433333Y-170688152D02*
X89385714Y-170783390D01*
X89385714Y-170783390D02*
X89338095Y-170831009D01*
X89338095Y-170831009D02*
X89242857Y-170878628D01*
X89242857Y-170878628D02*
X88861905Y-170878628D01*
X90004762Y-170783390D02*
X89909524Y-170735771D01*
X89909524Y-170735771D02*
X89861905Y-170688152D01*
X89861905Y-170688152D02*
X89814286Y-170592914D01*
X89814286Y-170592914D02*
X89814286Y-170545295D01*
X89814286Y-170545295D02*
X89861905Y-170450057D01*
X89861905Y-170450057D02*
X89909524Y-170402438D01*
X89909524Y-170402438D02*
X90004762Y-170354819D01*
X90004762Y-170354819D02*
X90195238Y-170354819D01*
X90195238Y-170354819D02*
X90290476Y-170402438D01*
X90290476Y-170402438D02*
X90338095Y-170450057D01*
X90338095Y-170450057D02*
X90385714Y-170545295D01*
X90385714Y-170545295D02*
X90385714Y-170592914D01*
X90385714Y-170592914D02*
X90338095Y-170688152D01*
X90338095Y-170688152D02*
X90290476Y-170735771D01*
X90290476Y-170735771D02*
X90195238Y-170783390D01*
X90195238Y-170783390D02*
X90004762Y-170783390D01*
X90004762Y-170783390D02*
X89909524Y-170831009D01*
X89909524Y-170831009D02*
X89861905Y-170878628D01*
X89861905Y-170878628D02*
X89814286Y-170973866D01*
X89814286Y-170973866D02*
X89814286Y-171164342D01*
X89814286Y-171164342D02*
X89861905Y-171259580D01*
X89861905Y-171259580D02*
X89909524Y-171307200D01*
X89909524Y-171307200D02*
X90004762Y-171354819D01*
X90004762Y-171354819D02*
X90195238Y-171354819D01*
X90195238Y-171354819D02*
X90290476Y-171307200D01*
X90290476Y-171307200D02*
X90338095Y-171259580D01*
X90338095Y-171259580D02*
X90385714Y-171164342D01*
X90385714Y-171164342D02*
X90385714Y-170973866D01*
X90385714Y-170973866D02*
X90338095Y-170878628D01*
X90338095Y-170878628D02*
X90290476Y-170831009D01*
X90290476Y-170831009D02*
X90195238Y-170783390D01*
X89433333Y-168254819D02*
X89100000Y-167778628D01*
X88861905Y-168254819D02*
X88861905Y-167254819D01*
X88861905Y-167254819D02*
X89242857Y-167254819D01*
X89242857Y-167254819D02*
X89338095Y-167302438D01*
X89338095Y-167302438D02*
X89385714Y-167350057D01*
X89385714Y-167350057D02*
X89433333Y-167445295D01*
X89433333Y-167445295D02*
X89433333Y-167588152D01*
X89433333Y-167588152D02*
X89385714Y-167683390D01*
X89385714Y-167683390D02*
X89338095Y-167731009D01*
X89338095Y-167731009D02*
X89242857Y-167778628D01*
X89242857Y-167778628D02*
X88861905Y-167778628D01*
X89909524Y-168254819D02*
X90100000Y-168254819D01*
X90100000Y-168254819D02*
X90195238Y-168207200D01*
X90195238Y-168207200D02*
X90242857Y-168159580D01*
X90242857Y-168159580D02*
X90338095Y-168016723D01*
X90338095Y-168016723D02*
X90385714Y-167826247D01*
X90385714Y-167826247D02*
X90385714Y-167445295D01*
X90385714Y-167445295D02*
X90338095Y-167350057D01*
X90338095Y-167350057D02*
X90290476Y-167302438D01*
X90290476Y-167302438D02*
X90195238Y-167254819D01*
X90195238Y-167254819D02*
X90004762Y-167254819D01*
X90004762Y-167254819D02*
X89909524Y-167302438D01*
X89909524Y-167302438D02*
X89861905Y-167350057D01*
X89861905Y-167350057D02*
X89814286Y-167445295D01*
X89814286Y-167445295D02*
X89814286Y-167683390D01*
X89814286Y-167683390D02*
X89861905Y-167778628D01*
X89861905Y-167778628D02*
X89909524Y-167826247D01*
X89909524Y-167826247D02*
X90004762Y-167873866D01*
X90004762Y-167873866D02*
X90195238Y-167873866D01*
X90195238Y-167873866D02*
X90290476Y-167826247D01*
X90290476Y-167826247D02*
X90338095Y-167778628D01*
X90338095Y-167778628D02*
X90385714Y-167683390D01*
X89074819Y-175621666D02*
X88598628Y-175954999D01*
X89074819Y-176193094D02*
X88074819Y-176193094D01*
X88074819Y-176193094D02*
X88074819Y-175812142D01*
X88074819Y-175812142D02*
X88122438Y-175716904D01*
X88122438Y-175716904D02*
X88170057Y-175669285D01*
X88170057Y-175669285D02*
X88265295Y-175621666D01*
X88265295Y-175621666D02*
X88408152Y-175621666D01*
X88408152Y-175621666D02*
X88503390Y-175669285D01*
X88503390Y-175669285D02*
X88551009Y-175716904D01*
X88551009Y-175716904D02*
X88598628Y-175812142D01*
X88598628Y-175812142D02*
X88598628Y-176193094D01*
X89074819Y-174669285D02*
X89074819Y-175240713D01*
X89074819Y-174954999D02*
X88074819Y-174954999D01*
X88074819Y-174954999D02*
X88217676Y-175050237D01*
X88217676Y-175050237D02*
X88312914Y-175145475D01*
X88312914Y-175145475D02*
X88360533Y-175240713D01*
D13*
%TO.C,U5*%
X110590000Y-163690000D02*
X111850000Y-163690000D01*
X110590000Y-167450000D02*
X110590000Y-163690000D01*
X117410000Y-163690000D02*
X116150000Y-163690000D01*
X117410000Y-167450000D02*
X117410000Y-163690000D01*
X110690000Y-168730000D02*
X110360000Y-168970000D01*
X110360000Y-168490000D01*
X110690000Y-168730000D01*
G36*
X110690000Y-168730000D02*
G01*
X110360000Y-168970000D01*
X110360000Y-168490000D01*
X110690000Y-168730000D01*
G37*
%TO.C,U1*%
X98855000Y-121010000D02*
X98855000Y-127210000D01*
X98855000Y-121010000D02*
X117255000Y-121010000D01*
X98855000Y-145860000D02*
X98855000Y-146860000D01*
X98855000Y-146860000D02*
X100355000Y-146860000D01*
X117255000Y-121010000D02*
X117255000Y-127210000D01*
X117255000Y-146860000D02*
X115755000Y-146860000D01*
X117255000Y-146860000D02*
X117255000Y-145860000D01*
X98855000Y-127885000D02*
X98355000Y-127885000D01*
X98855000Y-127385000D01*
X98855000Y-127885000D01*
G36*
X98855000Y-127885000D02*
G01*
X98355000Y-127885000D01*
X98855000Y-127385000D01*
X98855000Y-127885000D01*
G37*
D12*
%TO.C,U4*%
X93975000Y-165680000D02*
X93975000Y-169830000D01*
X99125000Y-165680000D02*
X99125000Y-169830000D01*
D13*
X99380000Y-165495000D02*
X99050000Y-165255000D01*
X99380000Y-165015000D01*
X99380000Y-165495000D01*
G36*
X99380000Y-165495000D02*
G01*
X99050000Y-165255000D01*
X99380000Y-165015000D01*
X99380000Y-165495000D01*
G37*
%TO.C,L1*%
X103750000Y-171800000D02*
X110050000Y-171800000D01*
X103750000Y-178000000D02*
X110050000Y-178000000D01*
%TO.C,R4*%
X90847500Y-165237742D02*
X90847500Y-165712258D01*
X91892500Y-165237742D02*
X91892500Y-165712258D01*
%TO.C,C2*%
X99735000Y-167995580D02*
X99735000Y-167714420D01*
X100755000Y-167995580D02*
X100755000Y-167714420D01*
%TO.C,C8*%
X100038748Y-172255000D02*
X101461252Y-172255000D01*
X100038748Y-174075000D02*
X101461252Y-174075000D01*
%TO.C,R3*%
X92377500Y-165237742D02*
X92377500Y-165712258D01*
X93422500Y-165237742D02*
X93422500Y-165712258D01*
%TO.C,SW4*%
X126305000Y-134000000D02*
X126305000Y-133800000D01*
X126305000Y-137000000D02*
X126305000Y-135300000D01*
X127355000Y-138850000D02*
X128145000Y-138850000D01*
X128145000Y-131950000D02*
X127355000Y-131950000D01*
X129155000Y-136800000D02*
X130445000Y-136800000D01*
X129155000Y-138250000D02*
X129155000Y-132550000D01*
X130445000Y-135500000D02*
X129155000Y-135500000D01*
X130445000Y-135500000D02*
X130655000Y-135700000D01*
X130445000Y-136800000D02*
X130655000Y-136600000D01*
X130655000Y-136600000D02*
X130655000Y-135700000D01*
%TO.C,C4*%
X100038748Y-174645000D02*
X101461252Y-174645000D01*
X100038748Y-176465000D02*
X101461252Y-176465000D01*
%TO.C,SW1*%
X90900000Y-183500000D02*
X90900000Y-184290000D01*
X91500000Y-185300000D02*
X97200000Y-185300000D01*
X92750000Y-182450000D02*
X94450000Y-182450000D01*
X92950000Y-185300000D02*
X92950000Y-186590000D01*
X92950000Y-186590000D02*
X93150000Y-186800000D01*
X93150000Y-186800000D02*
X94050000Y-186800000D01*
X94250000Y-186590000D02*
X94050000Y-186800000D01*
X94250000Y-186590000D02*
X94250000Y-185300000D01*
X95750000Y-182450000D02*
X95950000Y-182450000D01*
X97800000Y-184290000D02*
X97800000Y-183500000D01*
%TO.C,C9*%
X92034420Y-168790000D02*
X92315580Y-168790000D01*
X92034420Y-169810000D02*
X92315580Y-169810000D01*
%TO.C,D1*%
X103290000Y-168250000D02*
X103290000Y-171550000D01*
X103290000Y-168250000D02*
X108800000Y-168250000D01*
X103290000Y-171550000D02*
X108800000Y-171550000D01*
%TO.C,C5*%
X103490000Y-178290000D02*
X103490000Y-180640000D01*
X103490000Y-185110000D02*
X103490000Y-182760000D01*
X109245563Y-178290000D02*
X103490000Y-178290000D01*
X109245563Y-185110000D02*
X103490000Y-185110000D01*
X110310000Y-179354437D02*
X109245563Y-178290000D01*
X110310000Y-179354437D02*
X110310000Y-180640000D01*
X110310000Y-184045563D02*
X109245563Y-185110000D01*
X110310000Y-184045563D02*
X110310000Y-182760000D01*
X110943750Y-183941250D02*
X110943750Y-183153750D01*
X111337500Y-183547500D02*
X110550000Y-183547500D01*
%TO.C,Q1*%
X92590000Y-171895000D02*
X96710000Y-171895000D01*
X92590000Y-171990000D02*
X92590000Y-171895000D01*
X92590000Y-177015000D02*
X92590000Y-176920000D01*
X96710000Y-171895000D02*
X96710000Y-171990000D01*
X96710000Y-176920000D02*
X96710000Y-177015000D01*
X96710000Y-177015000D02*
X92590000Y-177015000D01*
X92050000Y-171985000D02*
X91810000Y-171655000D01*
X92290000Y-171655000D01*
X92050000Y-171985000D01*
G36*
X92050000Y-171985000D02*
G01*
X91810000Y-171655000D01*
X92290000Y-171655000D01*
X92050000Y-171985000D01*
G37*
%TO.C,C7*%
X94190000Y-130740580D02*
X94190000Y-130459420D01*
X95210000Y-130740580D02*
X95210000Y-130459420D01*
%TO.C,R7*%
X84637742Y-142477500D02*
X85112258Y-142477500D01*
X84637742Y-143522500D02*
X85112258Y-143522500D01*
%TO.C,U6*%
X112165000Y-150715000D02*
X116285000Y-150715000D01*
X112165000Y-150770000D02*
X112165000Y-150715000D01*
X112165000Y-160835000D02*
X112165000Y-160780000D01*
X116285000Y-150715000D02*
X116285000Y-150770000D01*
X116285000Y-160780000D02*
X116285000Y-160835000D01*
X116285000Y-160835000D02*
X112165000Y-160835000D01*
X117065000Y-161115000D02*
X116585000Y-161115000D01*
X116825000Y-160785000D01*
X117065000Y-161115000D01*
G36*
X117065000Y-161115000D02*
G01*
X116585000Y-161115000D01*
X116825000Y-160785000D01*
X117065000Y-161115000D01*
G37*
%TO.C,R5*%
X96177500Y-130837258D02*
X96177500Y-130362742D01*
X97222500Y-130837258D02*
X97222500Y-130362742D01*
%TO.C,SW2*%
X93450000Y-137200000D02*
X96750000Y-137200000D01*
X93450000Y-137500000D02*
X93450000Y-137200000D01*
X93450000Y-139700000D02*
X93450000Y-140000000D01*
X93450000Y-140000000D02*
X96750000Y-140000000D01*
X96750000Y-137200000D02*
X96750000Y-137500000D01*
X96750000Y-140000000D02*
X96750000Y-139700000D01*
%TO.C,R6*%
X116547500Y-149187258D02*
X116547500Y-148712742D01*
X117592500Y-149187258D02*
X117592500Y-148712742D01*
%TO.C,R8*%
X91937742Y-170277500D02*
X92412258Y-170277500D01*
X91937742Y-171322500D02*
X92412258Y-171322500D01*
%TO.C,R9*%
X91937742Y-167277500D02*
X92412258Y-167277500D01*
X91937742Y-168322500D02*
X92412258Y-168322500D01*
%TO.C,R1*%
X89527500Y-175692258D02*
X89527500Y-175217742D01*
X90572500Y-175692258D02*
X90572500Y-175217742D01*
%TD*%
M02*
