%TF.GenerationSoftware,KiCad,Pcbnew,9.0.6*%
%TF.CreationDate,2026-01-23T15:57:09+01:00*%
%TF.ProjectId,customPCB,63757374-6f6d-4504-9342-2e6b69636164,rev?*%
%TF.SameCoordinates,Original*%
%TF.FileFunction,Copper,L1,Top*%
%TF.FilePolarity,Positive*%
%FSLAX46Y46*%
G04 Gerber Fmt 4.6, Leading zero omitted, Abs format (unit mm)*
G04 Created by KiCad (PCBNEW 9.0.6) date 2026-01-23 15:57:09*
%MOMM*%
%LPD*%
G01*
G04 APERTURE LIST*
G04 Aperture macros list*
%AMRoundRect*
0 Rectangle with rounded corners*
0 $1 Rounding radius*
0 $2 $3 $4 $5 $6 $7 $8 $9 X,Y pos of 4 corners*
0 Add a 4 corners polygon primitive as box body*
4,1,4,$2,$3,$4,$5,$6,$7,$8,$9,$2,$3,0*
0 Add four circle primitives for the rounded corners*
1,1,$1+$1,$2,$3*
1,1,$1+$1,$4,$5*
1,1,$1+$1,$6,$7*
1,1,$1+$1,$8,$9*
0 Add four rect primitives between the rounded corners*
20,1,$1+$1,$2,$3,$4,$5,0*
20,1,$1+$1,$4,$5,$6,$7,0*
20,1,$1+$1,$6,$7,$8,$9,0*
20,1,$1+$1,$8,$9,$2,$3,0*%
G04 Aperture macros list end*
%TA.AperFunction,SMDPad,CuDef*%
%ADD10RoundRect,0.375000X0.375000X-0.625000X0.375000X0.625000X-0.375000X0.625000X-0.375000X-0.625000X0*%
%TD*%
%TA.AperFunction,SMDPad,CuDef*%
%ADD11RoundRect,0.500000X1.400000X-0.500000X1.400000X0.500000X-1.400000X0.500000X-1.400000X-0.500000X0*%
%TD*%
%TA.AperFunction,SMDPad,CuDef*%
%ADD12R,1.500000X0.900000*%
%TD*%
%TA.AperFunction,SMDPad,CuDef*%
%ADD13R,0.900000X1.500000*%
%TD*%
%TA.AperFunction,HeatsinkPad*%
%ADD14C,0.600000*%
%TD*%
%TA.AperFunction,HeatsinkPad*%
%ADD15R,3.900000X3.900000*%
%TD*%
%TA.AperFunction,SMDPad,CuDef*%
%ADD16R,0.600000X1.550000*%
%TD*%
%TA.AperFunction,ComponentPad*%
%ADD17C,0.600000*%
%TD*%
%TA.AperFunction,SMDPad,CuDef*%
%ADD18R,3.100000X2.600000*%
%TD*%
%TA.AperFunction,SMDPad,CuDef*%
%ADD19R,4.500000X2.950000*%
%TD*%
%TA.AperFunction,SMDPad,CuDef*%
%ADD20R,1.600000X5.700000*%
%TD*%
%TA.AperFunction,SMDPad,CuDef*%
%ADD21RoundRect,0.200000X-0.275000X0.200000X-0.275000X-0.200000X0.275000X-0.200000X0.275000X0.200000X0*%
%TD*%
%TA.AperFunction,SMDPad,CuDef*%
%ADD22RoundRect,0.225000X0.250000X-0.225000X0.250000X0.225000X-0.250000X0.225000X-0.250000X-0.225000X0*%
%TD*%
%TA.AperFunction,SMDPad,CuDef*%
%ADD23RoundRect,0.250000X-0.325000X-0.650000X0.325000X-0.650000X0.325000X0.650000X-0.325000X0.650000X0*%
%TD*%
%TA.AperFunction,SMDPad,CuDef*%
%ADD24R,0.800000X1.000000*%
%TD*%
%TA.AperFunction,SMDPad,CuDef*%
%ADD25R,1.500000X0.700000*%
%TD*%
%TA.AperFunction,SMDPad,CuDef*%
%ADD26R,1.000000X0.800000*%
%TD*%
%TA.AperFunction,SMDPad,CuDef*%
%ADD27R,0.700000X1.500000*%
%TD*%
%TA.AperFunction,SMDPad,CuDef*%
%ADD28RoundRect,0.225000X-0.225000X-0.250000X0.225000X-0.250000X0.225000X0.250000X-0.225000X0.250000X0*%
%TD*%
%TA.AperFunction,SMDPad,CuDef*%
%ADD29RoundRect,0.250000X-1.000000X-0.650000X1.000000X-0.650000X1.000000X0.650000X-1.000000X0.650000X0*%
%TD*%
%TA.AperFunction,SMDPad,CuDef*%
%ADD30RoundRect,0.250000X1.500000X0.550000X-1.500000X0.550000X-1.500000X-0.550000X1.500000X-0.550000X0*%
%TD*%
%TA.AperFunction,SMDPad,CuDef*%
%ADD31RoundRect,0.150000X-0.825000X-0.150000X0.825000X-0.150000X0.825000X0.150000X-0.825000X0.150000X0*%
%TD*%
%TA.AperFunction,SMDPad,CuDef*%
%ADD32RoundRect,0.200000X-0.200000X-0.275000X0.200000X-0.275000X0.200000X0.275000X-0.200000X0.275000X0*%
%TD*%
%TA.AperFunction,SMDPad,CuDef*%
%ADD33RoundRect,0.150000X0.825000X0.150000X-0.825000X0.150000X-0.825000X-0.150000X0.825000X-0.150000X0*%
%TD*%
%TA.AperFunction,SMDPad,CuDef*%
%ADD34RoundRect,0.200000X0.275000X-0.200000X0.275000X0.200000X-0.275000X0.200000X-0.275000X-0.200000X0*%
%TD*%
%TA.AperFunction,SMDPad,CuDef*%
%ADD35R,0.900000X1.700000*%
%TD*%
%TA.AperFunction,ComponentPad*%
%ADD36RoundRect,0.250000X-0.600000X-0.750000X0.600000X-0.750000X0.600000X0.750000X-0.600000X0.750000X0*%
%TD*%
%TA.AperFunction,ComponentPad*%
%ADD37O,1.700000X2.000000*%
%TD*%
%TA.AperFunction,ComponentPad*%
%ADD38C,0.700000*%
%TD*%
%TA.AperFunction,ComponentPad*%
%ADD39O,1.700000X0.900000*%
%TD*%
%TA.AperFunction,ComponentPad*%
%ADD40O,2.400000X0.900000*%
%TD*%
%TA.AperFunction,ComponentPad*%
%ADD41C,1.700000*%
%TD*%
%TA.AperFunction,ComponentPad*%
%ADD42RoundRect,0.250000X-0.600000X-0.600000X0.600000X-0.600000X0.600000X0.600000X-0.600000X0.600000X0*%
%TD*%
%TA.AperFunction,ComponentPad*%
%ADD43RoundRect,1.500000X-1.500000X-1.500000X1.500000X-1.500000X1.500000X1.500000X-1.500000X1.500000X0*%
%TD*%
%TA.AperFunction,ComponentPad*%
%ADD44C,6.000000*%
%TD*%
%TA.AperFunction,ViaPad*%
%ADD45C,1.000000*%
%TD*%
%TA.AperFunction,ViaPad*%
%ADD46C,0.600000*%
%TD*%
%TA.AperFunction,Conductor*%
%ADD47C,0.300000*%
%TD*%
%TA.AperFunction,Conductor*%
%ADD48C,0.900000*%
%TD*%
G04 APERTURE END LIST*
D10*
%TO.P,U5,1,GND*%
%TO.N,/GND*%
X111700000Y-168750000D03*
%TO.P,U5,2,VO*%
%TO.N,/+3V3*%
X114000000Y-168750000D03*
D11*
X114000000Y-162450000D03*
D10*
%TO.P,U5,3,VI*%
%TO.N,/+5V*%
X116300000Y-168750000D03*
%TD*%
D12*
%TO.P,U1,1,GND*%
%TO.N,/GND*%
X99305000Y-128650000D03*
%TO.P,U1,2,3V3*%
%TO.N,/+3V3*%
X99305000Y-129920000D03*
%TO.P,U1,3,EN*%
%TO.N,Net-(U1-EN)*%
X99305000Y-131190000D03*
%TO.P,U1,4,IO4*%
%TO.N,unconnected-(U1-IO4-Pad4)*%
X99305000Y-132460000D03*
%TO.P,U1,5,IO5*%
%TO.N,unconnected-(U1-IO5-Pad5)*%
X99305000Y-133730000D03*
%TO.P,U1,6,IO6*%
%TO.N,unconnected-(U1-IO6-Pad6)*%
X99305000Y-135000000D03*
%TO.P,U1,7,IO7*%
%TO.N,unconnected-(U1-IO7-Pad7)*%
X99305000Y-136270000D03*
%TO.P,U1,8,IO15*%
%TO.N,unconnected-(U1-IO15-Pad8)*%
X99305000Y-137540000D03*
%TO.P,U1,9,IO16*%
%TO.N,unconnected-(U1-IO16-Pad9)*%
X99305000Y-138810000D03*
%TO.P,U1,10,IO17*%
%TO.N,unconnected-(U1-IO17-Pad10)*%
X99305000Y-140080000D03*
%TO.P,U1,11,IO18*%
%TO.N,unconnected-(U1-IO18-Pad11)*%
X99305000Y-141350000D03*
%TO.P,U1,12,IO8*%
%TO.N,Net-(SW5-A)*%
X99305000Y-142620000D03*
%TO.P,U1,13,USB_D-*%
%TO.N,Net-(U1-USB_D-)*%
X99305000Y-143890000D03*
%TO.P,U1,14,USB_D+*%
%TO.N,Net-(U1-USB_D+)*%
X99305000Y-145160000D03*
D13*
%TO.P,U1,15,IO3*%
%TO.N,/BAT_SENSE*%
X101070000Y-146410000D03*
%TO.P,U1,16,IO46*%
%TO.N,unconnected-(U1-IO46-Pad16)*%
X102340000Y-146410000D03*
%TO.P,U1,17,IO9*%
%TO.N,unconnected-(U1-IO9-Pad17)*%
X103610000Y-146410000D03*
%TO.P,U1,18,IO10*%
%TO.N,unconnected-(U1-IO10-Pad18)*%
X104880000Y-146410000D03*
%TO.P,U1,19,IO11*%
%TO.N,Net-(M1-Pin_2)*%
X106150000Y-146410000D03*
%TO.P,U1,20,IO12*%
%TO.N,Net-(M2-Pin_2)*%
X107420000Y-146410000D03*
%TO.P,U1,21,IO13*%
%TO.N,Net-(M3-Pin_2)*%
X108690000Y-146410000D03*
%TO.P,U1,22,IO14*%
%TO.N,unconnected-(U1-IO14-Pad22)*%
X109960000Y-146410000D03*
%TO.P,U1,23,IO21*%
%TO.N,/SPI_CS*%
X111230000Y-146410000D03*
%TO.P,U1,24,IO47*%
%TO.N,/SPI_MOSI*%
X112500000Y-146410000D03*
%TO.P,U1,25,IO48*%
%TO.N,/SPI_MISO*%
X113770000Y-146410000D03*
%TO.P,U1,26,IO45*%
%TO.N,/SPI_CLK*%
X115040000Y-146410000D03*
D12*
%TO.P,U1,27,IO0*%
%TO.N,Net-(U1-IO0)*%
X116805000Y-145160000D03*
%TO.P,U1,28,IO35*%
%TO.N,Net-(J4-Pin_24)*%
X116805000Y-143890000D03*
%TO.P,U1,29,IO36*%
%TO.N,Net-(J4-Pin_22)*%
X116805000Y-142620000D03*
%TO.P,U1,30,IO37*%
%TO.N,Net-(J4-Pin_20)*%
X116805000Y-141350000D03*
%TO.P,U1,31,IO38*%
%TO.N,Net-(J4-Pin_18)*%
X116805000Y-140080000D03*
%TO.P,U1,32,IO39*%
%TO.N,Net-(J4-Pin_16)*%
X116805000Y-138810000D03*
%TO.P,U1,33,IO40*%
%TO.N,Net-(J4-Pin_14)*%
X116805000Y-137540000D03*
%TO.P,U1,34,IO41*%
%TO.N,Net-(J4-Pin_12)*%
X116805000Y-136270000D03*
%TO.P,U1,35,IO42*%
%TO.N,Net-(J4-Pin_10)*%
X116805000Y-135000000D03*
%TO.P,U1,36,RXD0*%
%TO.N,unconnected-(U1-RXD0-Pad36)*%
X116805000Y-133730000D03*
%TO.P,U1,37,TXD0*%
%TO.N,unconnected-(U1-TXD0-Pad37)*%
X116805000Y-132460000D03*
%TO.P,U1,38,IO2*%
%TO.N,Net-(U1-IO2)*%
X116805000Y-131190000D03*
%TO.P,U1,39,IO1*%
%TO.N,Net-(SW4-A)*%
X116805000Y-129920000D03*
%TO.P,U1,40,GND*%
%TO.N,/GND*%
X116805000Y-128650000D03*
D14*
%TO.P,U1,41,GND*%
X105155000Y-135670000D03*
X105155000Y-137070000D03*
X105855000Y-134970000D03*
X105855000Y-136370000D03*
X105855000Y-137770000D03*
X106555000Y-135670000D03*
D15*
X106555000Y-136370000D03*
D14*
X106555000Y-137070000D03*
X107255000Y-134970000D03*
X107255000Y-136370000D03*
X107255000Y-137770000D03*
X107955000Y-135670000D03*
X107955000Y-137070000D03*
%TD*%
D16*
%TO.P,U4,1,BOOT*%
%TO.N,Net-(U4-BOOT)*%
X98455000Y-165055000D03*
%TO.P,U4,2,NC*%
%TO.N,unconnected-(U4-NC-Pad2)*%
X97185000Y-165055000D03*
%TO.P,U4,3,NC*%
%TO.N,unconnected-(U4-NC-Pad3)*%
X95915000Y-165055000D03*
%TO.P,U4,4,VSENSE*%
%TO.N,Net-(U4-VSENSE)*%
X94645000Y-165055000D03*
%TO.P,U4,5,EN*%
%TO.N,unconnected-(U4-EN-Pad5)*%
X94645000Y-170455000D03*
%TO.P,U4,6,GND*%
%TO.N,/GND*%
X95915000Y-170455000D03*
%TO.P,U4,7,VIN*%
%TO.N,/VCC_12V*%
X97185000Y-170455000D03*
%TO.P,U4,8,PH*%
%TO.N,Net-(D1-K)*%
X98455000Y-170455000D03*
D17*
%TO.P,U4,9,GNDPAD*%
%TO.N,/GND*%
X98350000Y-167155000D03*
X97150000Y-167155000D03*
X95850000Y-167155000D03*
X94750000Y-167155000D03*
D18*
X96550000Y-167755000D03*
D19*
X96550000Y-167755000D03*
D17*
X98350000Y-168355000D03*
X97150000Y-168355000D03*
X95850000Y-168355000D03*
X94750000Y-168355000D03*
%TD*%
D20*
%TO.P,L1,1,1*%
%TO.N,Net-(D1-K)*%
X104550000Y-174900000D03*
%TO.P,L1,2,2*%
%TO.N,/+5V*%
X109250000Y-174900000D03*
%TD*%
D21*
%TO.P,R4,1*%
%TO.N,Net-(U4-VSENSE)*%
X91370000Y-164650000D03*
%TO.P,R4,2*%
%TO.N,/+5V*%
X91370000Y-166300000D03*
%TD*%
D22*
%TO.P,C2,1*%
%TO.N,Net-(D1-K)*%
X100245000Y-168630000D03*
%TO.P,C2,2*%
%TO.N,Net-(U4-BOOT)*%
X100245000Y-167080000D03*
%TD*%
D23*
%TO.P,C8,1*%
%TO.N,/VCC_12V*%
X99275000Y-173165000D03*
%TO.P,C8,2*%
%TO.N,/GND*%
X102225000Y-173165000D03*
%TD*%
D21*
%TO.P,R3,1*%
%TO.N,Net-(U4-VSENSE)*%
X92900000Y-164650000D03*
%TO.P,R3,2*%
%TO.N,/GND*%
X92900000Y-166300000D03*
%TD*%
D24*
%TO.P,SW4,*%
%TO.N,*%
X126645000Y-139050000D03*
X128855000Y-139050000D03*
X126645000Y-131750000D03*
X128855000Y-131750000D03*
D25*
%TO.P,SW4,1,A*%
%TO.N,Net-(SW4-A)*%
X125995000Y-137650000D03*
%TO.P,SW4,2,B*%
%TO.N,/GND*%
X125995000Y-134650000D03*
%TO.P,SW4,3,C*%
%TO.N,unconnected-(SW4-C-Pad3)*%
X125995000Y-133150000D03*
%TD*%
D23*
%TO.P,C4,1*%
%TO.N,/VCC_12V*%
X99275000Y-175555000D03*
%TO.P,C4,2*%
%TO.N,/GND*%
X102225000Y-175555000D03*
%TD*%
D26*
%TO.P,SW1,*%
%TO.N,*%
X90700000Y-182790000D03*
X90700000Y-185000000D03*
X98000000Y-182790000D03*
X98000000Y-185000000D03*
D27*
%TO.P,SW1,1,A*%
%TO.N,Net-(Q1-G)*%
X92100000Y-182140000D03*
%TO.P,SW1,2,B*%
%TO.N,/GND*%
X95100000Y-182140000D03*
%TO.P,SW1,3,C*%
%TO.N,unconnected-(SW1-C-Pad3)*%
X96600000Y-182140000D03*
%TD*%
D28*
%TO.P,C9,1*%
%TO.N,/BAT_SENSE*%
X91400000Y-169300000D03*
%TO.P,C9,2*%
%TO.N,/GND*%
X92950000Y-169300000D03*
%TD*%
D29*
%TO.P,D1,1,K*%
%TO.N,Net-(D1-K)*%
X104800000Y-169900000D03*
%TO.P,D1,2,A*%
%TO.N,/GND*%
X108800000Y-169900000D03*
%TD*%
D30*
%TO.P,C5,1*%
%TO.N,/+5V*%
X109700000Y-181700000D03*
%TO.P,C5,2*%
%TO.N,/GND*%
X104100000Y-181700000D03*
%TD*%
D31*
%TO.P,Q1,1,S*%
%TO.N,Net-(J1-Pin_1)*%
X92175000Y-172550000D03*
%TO.P,Q1,2,S*%
X92175000Y-173820000D03*
%TO.P,Q1,3,S*%
X92175000Y-175090000D03*
%TO.P,Q1,4,G*%
%TO.N,Net-(Q1-G)*%
X92175000Y-176360000D03*
%TO.P,Q1,5,D*%
%TO.N,/VCC_12V*%
X97125000Y-176360000D03*
%TO.P,Q1,6,D*%
X97125000Y-175090000D03*
%TO.P,Q1,7,D*%
X97125000Y-173820000D03*
%TO.P,Q1,8,D*%
X97125000Y-172550000D03*
%TD*%
D22*
%TO.P,C7,1*%
%TO.N,Net-(U1-EN)*%
X94700000Y-131375000D03*
%TO.P,C7,2*%
%TO.N,/GND*%
X94700000Y-129825000D03*
%TD*%
D32*
%TO.P,R7,1*%
%TO.N,/GND*%
X84050000Y-143000000D03*
%TO.P,R7,2*%
%TO.N,Net-(J2-CC2)*%
X85700000Y-143000000D03*
%TD*%
D33*
%TO.P,U6,1,CH0*%
%TO.N,Net-(J4-Pin_9)*%
X116700000Y-160220000D03*
%TO.P,U6,2,CH1*%
%TO.N,Net-(J4-Pin_11)*%
X116700000Y-158950000D03*
%TO.P,U6,3,CH2*%
%TO.N,Net-(J4-Pin_13)*%
X116700000Y-157680000D03*
%TO.P,U6,4,CH3*%
%TO.N,Net-(J4-Pin_15)*%
X116700000Y-156410000D03*
%TO.P,U6,5,CH4*%
%TO.N,Net-(J4-Pin_17)*%
X116700000Y-155140000D03*
%TO.P,U6,6,CH5*%
%TO.N,Net-(J4-Pin_19)*%
X116700000Y-153870000D03*
%TO.P,U6,7,CH6*%
%TO.N,Net-(J4-Pin_21)*%
X116700000Y-152600000D03*
%TO.P,U6,8,CH7*%
%TO.N,Net-(J4-Pin_23)*%
X116700000Y-151330000D03*
%TO.P,U6,9,DGND*%
%TO.N,/GND*%
X111750000Y-151330000D03*
%TO.P,U6,10,~{CS}/SHDN*%
%TO.N,/SPI_CS*%
X111750000Y-152600000D03*
%TO.P,U6,11,Din*%
%TO.N,/SPI_MOSI*%
X111750000Y-153870000D03*
%TO.P,U6,12,Dout*%
%TO.N,/SPI_MISO*%
X111750000Y-155140000D03*
%TO.P,U6,13,CLK*%
%TO.N,/SPI_CLK*%
X111750000Y-156410000D03*
%TO.P,U6,14,AGND*%
%TO.N,/GND*%
X111750000Y-157680000D03*
%TO.P,U6,15,Vref*%
%TO.N,/+3V3*%
X111750000Y-158950000D03*
%TO.P,U6,16,Vdd*%
X111750000Y-160220000D03*
%TD*%
D34*
%TO.P,R5,1*%
%TO.N,Net-(U1-EN)*%
X96700000Y-131425000D03*
%TO.P,R5,2*%
%TO.N,/+3V3*%
X96700000Y-129775000D03*
%TD*%
D35*
%TO.P,SW2,1,1*%
%TO.N,/GND*%
X93400000Y-138600000D03*
%TO.P,SW2,2,2*%
%TO.N,Net-(U1-EN)*%
X96800000Y-138600000D03*
%TD*%
D34*
%TO.P,R6,1*%
%TO.N,/+3V3*%
X117070000Y-149775000D03*
%TO.P,R6,2*%
%TO.N,Net-(U1-IO0)*%
X117070000Y-148125000D03*
%TD*%
D32*
%TO.P,R8,1*%
%TO.N,/BAT_SENSE*%
X91350000Y-170800000D03*
%TO.P,R8,2*%
%TO.N,/VCC_12V*%
X93000000Y-170800000D03*
%TD*%
%TO.P,R9,1*%
%TO.N,/BAT_SENSE*%
X91350000Y-167800000D03*
%TO.P,R9,2*%
%TO.N,/GND*%
X93000000Y-167800000D03*
%TD*%
D34*
%TO.P,R1,1*%
%TO.N,Net-(Q1-G)*%
X90050000Y-176280000D03*
%TO.P,R1,2*%
%TO.N,Net-(J1-Pin_1)*%
X90050000Y-174630000D03*
%TD*%
D36*
%TO.P,M1,1,Pin_1*%
%TO.N,/GND*%
X104200000Y-151600000D03*
D37*
%TO.P,M1,2,Pin_2*%
%TO.N,Net-(M1-Pin_2)*%
X106700000Y-151600000D03*
%TD*%
D38*
%TO.P,J2,A1,GND*%
%TO.N,/GND*%
X88225000Y-147275000D03*
%TO.P,J2,A4,VBUS*%
%TO.N,Net-(D3-A)*%
X88225000Y-146425000D03*
%TO.P,J2,A5,CC1*%
%TO.N,Net-(J2-CC1)*%
X88225000Y-145575000D03*
%TO.P,J2,A6,D+*%
%TO.N,Net-(U1-USB_D+)*%
X88225000Y-144725000D03*
%TO.P,J2,A7,D-*%
%TO.N,Net-(U1-USB_D-)*%
X88225000Y-143875000D03*
%TO.P,J2,A8,SBU1*%
%TO.N,unconnected-(J2-SBU1-PadA8)*%
X88225000Y-143025000D03*
%TO.P,J2,A9,VBUS*%
%TO.N,Net-(D3-A)*%
X88225000Y-142175000D03*
%TO.P,J2,A12,GND*%
%TO.N,/GND*%
X88225000Y-141325000D03*
%TO.P,J2,B1,GND*%
X86875000Y-141325000D03*
%TO.P,J2,B4,VBUS*%
%TO.N,Net-(D3-A)*%
X86875000Y-142175000D03*
%TO.P,J2,B5,CC2*%
%TO.N,Net-(J2-CC2)*%
X86875000Y-143025000D03*
%TO.P,J2,B6,D+*%
%TO.N,unconnected-(J2-D+-PadB6)*%
X86875000Y-143875000D03*
%TO.P,J2,B7,D-*%
%TO.N,unconnected-(J2-D--PadB7)*%
X86875000Y-144725000D03*
%TO.P,J2,B8,SBU2*%
%TO.N,unconnected-(J2-SBU2-PadB8)*%
X86875000Y-145575000D03*
%TO.P,J2,B9,VBUS*%
%TO.N,Net-(D3-A)*%
X86875000Y-146425000D03*
%TO.P,J2,B12,GND*%
%TO.N,/GND*%
X86875000Y-147275000D03*
D39*
%TO.P,J2,S1,SHIELD*%
X83865000Y-148625000D03*
D40*
X87245000Y-148625000D03*
D39*
X83865000Y-139975000D03*
D40*
X87245000Y-139975000D03*
%TD*%
D41*
%TO.P,J4,1,Pin_1*%
%TO.N,unconnected-(J4-Pin_1-Pad1)*%
X121700000Y-173540000D03*
%TO.P,J4,2,Pin_2*%
%TO.N,unconnected-(J4-Pin_2-Pad2)*%
X124240000Y-173540000D03*
D42*
%TO.P,J4,3,Pin_3*%
%TO.N,/GND*%
X121700000Y-171000000D03*
%TO.P,J4,4,Pin_4*%
X124240000Y-171000000D03*
D41*
%TO.P,J4,5,Pin_5*%
%TO.N,/+5V*%
X121700000Y-168460000D03*
%TO.P,J4,6,Pin_6*%
X124240000Y-168460000D03*
%TO.P,J4,7,Pin_7*%
%TO.N,unconnected-(J4-Pin_7-Pad7)*%
X121700000Y-165920000D03*
%TO.P,J4,8,Pin_8*%
%TO.N,unconnected-(J4-Pin_8-Pad8)*%
X124240000Y-165920000D03*
%TO.P,J4,9,Pin_9*%
%TO.N,Net-(J4-Pin_9)*%
X121700000Y-163380000D03*
%TO.P,J4,10,Pin_10*%
%TO.N,Net-(J4-Pin_10)*%
X124240000Y-163380000D03*
%TO.P,J4,11,Pin_11*%
%TO.N,Net-(J4-Pin_11)*%
X121700000Y-160840000D03*
%TO.P,J4,12,Pin_12*%
%TO.N,Net-(J4-Pin_12)*%
X124240000Y-160840000D03*
%TO.P,J4,13,Pin_13*%
%TO.N,Net-(J4-Pin_13)*%
X121700000Y-158300000D03*
%TO.P,J4,14,Pin_14*%
%TO.N,Net-(J4-Pin_14)*%
X124240000Y-158300000D03*
%TO.P,J4,15,Pin_15*%
%TO.N,Net-(J4-Pin_15)*%
X121700000Y-155760000D03*
%TO.P,J4,16,Pin_16*%
%TO.N,Net-(J4-Pin_16)*%
X124240000Y-155760000D03*
%TO.P,J4,17,Pin_17*%
%TO.N,Net-(J4-Pin_17)*%
X121700000Y-153220000D03*
%TO.P,J4,18,Pin_18*%
%TO.N,Net-(J4-Pin_18)*%
X124240000Y-153220000D03*
%TO.P,J4,19,Pin_19*%
%TO.N,Net-(J4-Pin_19)*%
X121700000Y-150680000D03*
%TO.P,J4,20,Pin_20*%
%TO.N,Net-(J4-Pin_20)*%
X124240000Y-150680000D03*
%TO.P,J4,21,Pin_21*%
%TO.N,Net-(J4-Pin_21)*%
X121700000Y-148140000D03*
%TO.P,J4,22,Pin_22*%
%TO.N,Net-(J4-Pin_22)*%
X124240000Y-148140000D03*
%TO.P,J4,23,Pin_23*%
%TO.N,Net-(J4-Pin_23)*%
X121700000Y-145600000D03*
%TO.P,J4,24,Pin_24*%
%TO.N,Net-(J4-Pin_24)*%
X124240000Y-145600000D03*
%TD*%
D43*
%TO.P,J1,1,Pin_1*%
%TO.N,Net-(J1-Pin_1)*%
X86400000Y-157000000D03*
D44*
%TO.P,J1,2,Pin_2*%
%TO.N,/GND*%
X93600000Y-157000000D03*
%TD*%
D36*
%TO.P,M3,1,Pin_1*%
%TO.N,/GND*%
X104200000Y-165600000D03*
D37*
%TO.P,M3,2,Pin_2*%
%TO.N,Net-(M3-Pin_2)*%
X106700000Y-165600000D03*
%TD*%
D36*
%TO.P,M2,1,Pin_1*%
%TO.N,/GND*%
X104200000Y-158600000D03*
D37*
%TO.P,M2,2,Pin_2*%
%TO.N,Net-(M2-Pin_2)*%
X106700000Y-158600000D03*
%TD*%
D45*
%TO.N,/+5V*%
X90800000Y-166300000D03*
D46*
%TO.N,/+3V3*%
X100200000Y-129900000D03*
X118600000Y-145000000D03*
%TO.N,Net-(U1-IO0)*%
X114700000Y-143600000D03*
%TO.N,Net-(U1-IO2)*%
X115500000Y-131200000D03*
%TO.N,Net-(SW5-A)*%
X97800000Y-142700000D03*
%TD*%
D47*
%TO.N,Net-(U4-BOOT)*%
X100245000Y-166845000D02*
X98455000Y-165055000D01*
X100245000Y-167080000D02*
X100245000Y-166845000D01*
%TO.N,Net-(D1-K)*%
X101515000Y-169900000D02*
X100245000Y-168630000D01*
X104800000Y-169900000D02*
X101515000Y-169900000D01*
X98455000Y-170455000D02*
X98455000Y-170420000D01*
X104550000Y-174900000D02*
X104550000Y-170150000D01*
X98455000Y-170420000D02*
X100245000Y-168630000D01*
X104550000Y-170150000D02*
X104800000Y-169900000D01*
D48*
%TO.N,/VCC_12V*%
X94750000Y-172550000D02*
X97125000Y-172550000D01*
X97185000Y-170455000D02*
X97185000Y-176300000D01*
X97740000Y-173165000D02*
X97125000Y-172550000D01*
X97185000Y-176300000D02*
X97125000Y-176360000D01*
X99275000Y-173165000D02*
X99275000Y-175555000D01*
X99275000Y-173165000D02*
X97740000Y-173165000D01*
X93000000Y-170800000D02*
X94750000Y-172550000D01*
%TO.N,/GND*%
X83865000Y-139975000D02*
X84900000Y-139975000D01*
X92950000Y-167850000D02*
X93000000Y-167800000D01*
X106300000Y-183900000D02*
X104100000Y-181700000D01*
X111700000Y-168750000D02*
X108108592Y-168750000D01*
X87514000Y-147376000D02*
X88225000Y-147376000D01*
X84050000Y-141100000D02*
X84050000Y-140160000D01*
X84050000Y-143000000D02*
X84050000Y-141100000D01*
X92900000Y-166300000D02*
X92900000Y-167700000D01*
X94700000Y-129825000D02*
X95875000Y-128650000D01*
X110775001Y-157680000D02*
X111750000Y-157680000D01*
X84050000Y-147900000D02*
X84075000Y-147900000D01*
X116805000Y-128650000D02*
X112360000Y-128650000D01*
X84900000Y-139975000D02*
X87245000Y-139975000D01*
X95475000Y-166680000D02*
X96550000Y-167755000D01*
X84050000Y-141100000D02*
X84050000Y-140825000D01*
X87245000Y-140955000D02*
X86976000Y-141224000D01*
X84800000Y-148625000D02*
X87245000Y-148625000D01*
X100750000Y-128650000D02*
X106555000Y-134455000D01*
X95915000Y-168390000D02*
X96550000Y-167755000D01*
X106958592Y-167600000D02*
X105800000Y-167600000D01*
X94195000Y-167800000D02*
X94750000Y-168355000D01*
X104100000Y-181700000D02*
X106900000Y-178900000D01*
X88620000Y-138600000D02*
X87610000Y-139610000D01*
X116805000Y-128650000D02*
X117937000Y-128650000D01*
X109700000Y-158755001D02*
X110775001Y-157680000D01*
X84050000Y-148440000D02*
X83865000Y-148625000D01*
X111750000Y-157680000D02*
X110780000Y-157680000D01*
X114900000Y-177800000D02*
X114900000Y-180800000D01*
X106900000Y-178900000D02*
X106900000Y-171800000D01*
X102225000Y-173165000D02*
X102225000Y-175555000D01*
X84075000Y-147900000D02*
X84800000Y-148625000D01*
X105800000Y-167600000D02*
X104200000Y-166000000D01*
X83865000Y-148625000D02*
X84800000Y-148625000D01*
X87245000Y-139975000D02*
X87245000Y-140345000D01*
X100329000Y-177929000D02*
X104100000Y-181700000D01*
X87245000Y-148625000D02*
X87245000Y-147645000D01*
X110134000Y-157034000D02*
X110134000Y-152118200D01*
X87245000Y-147645000D02*
X87514000Y-147376000D01*
X100329000Y-177451000D02*
X96917000Y-177451000D01*
X104200000Y-166000000D02*
X104200000Y-165600000D01*
X87610000Y-139610000D02*
X87610000Y-136440000D01*
X104200000Y-158600000D02*
X104200000Y-165600000D01*
X95875000Y-128650000D02*
X99305000Y-128650000D01*
X99305000Y-128650000D02*
X100750000Y-128650000D01*
X94225000Y-129825000D02*
X94700000Y-129825000D01*
X100329000Y-177451000D02*
X100329000Y-177929000D01*
X92950000Y-169300000D02*
X92950000Y-167850000D01*
X87610000Y-136440000D02*
X94225000Y-129825000D01*
X84050000Y-140825000D02*
X84900000Y-139975000D01*
X110134000Y-152118200D02*
X110922200Y-151330000D01*
X111800000Y-183900000D02*
X106300000Y-183900000D01*
X95100000Y-179268000D02*
X95100000Y-182140000D01*
X109700000Y-165800000D02*
X109700000Y-158755001D01*
X124240000Y-171000000D02*
X121700000Y-171000000D01*
X108108592Y-168750000D02*
X106958592Y-167600000D01*
X106900000Y-171800000D02*
X108800000Y-169900000D01*
X104200000Y-151600000D02*
X104200000Y-158600000D01*
X100329000Y-177451000D02*
X102225000Y-175555000D01*
X96917000Y-177451000D02*
X95100000Y-179268000D01*
X87245000Y-140345000D02*
X88124000Y-141224000D01*
X117937000Y-128650000D02*
X124037000Y-134750000D01*
X87245000Y-139975000D02*
X87245000Y-140955000D01*
X84050000Y-140160000D02*
X83865000Y-139975000D01*
X88124000Y-141224000D02*
X88225000Y-141224000D01*
X112360000Y-128650000D02*
X106555000Y-134455000D01*
X87245000Y-147645000D02*
X86976000Y-147376000D01*
X106555000Y-134455000D02*
X106555000Y-135670000D01*
X110780000Y-157680000D02*
X110134000Y-157034000D01*
X121700000Y-171000000D02*
X114900000Y-177800000D01*
X86976000Y-147376000D02*
X86875000Y-147376000D01*
X114900000Y-180800000D02*
X111800000Y-183900000D01*
X95915000Y-170455000D02*
X95915000Y-168390000D01*
X124037000Y-134750000D02*
X125595000Y-134750000D01*
X107900000Y-167600000D02*
X106958592Y-167600000D01*
X93400000Y-138600000D02*
X88620000Y-138600000D01*
X86976000Y-141224000D02*
X86875000Y-141224000D01*
X87610000Y-139610000D02*
X87245000Y-139975000D01*
X92900000Y-167700000D02*
X93000000Y-167800000D01*
X110922200Y-151330000D02*
X111750000Y-151330000D01*
X84050000Y-143000000D02*
X84050000Y-147900000D01*
X109700000Y-165800000D02*
X107900000Y-167600000D01*
X93000000Y-167800000D02*
X94195000Y-167800000D01*
X84050000Y-147900000D02*
X84050000Y-148440000D01*
%TO.N,/+5V*%
X91370000Y-166300000D02*
X90800000Y-166300000D01*
X124240000Y-168460000D02*
X121700000Y-168460000D01*
X121410000Y-168750000D02*
X121700000Y-168460000D01*
X110950000Y-174900000D02*
X116300000Y-169550000D01*
X116300000Y-169550000D02*
X116300000Y-168750000D01*
X109700000Y-175350000D02*
X109250000Y-174900000D01*
X109250000Y-174900000D02*
X110950000Y-174900000D01*
X109700000Y-181700000D02*
X109700000Y-175350000D01*
X116300000Y-168750000D02*
X121410000Y-168750000D01*
D47*
%TO.N,/+3V3*%
X115384000Y-150916000D02*
X115384000Y-156290999D01*
X116525000Y-149775000D02*
X115384000Y-150916000D01*
X111750000Y-158950000D02*
X111750000Y-160220000D01*
X99325000Y-129900000D02*
X99305000Y-129920000D01*
X112724999Y-158950000D02*
X111750000Y-158950000D01*
X111750000Y-160220000D02*
X111770000Y-160220000D01*
X100200000Y-129900000D02*
X99325000Y-129900000D01*
X111770000Y-160220000D02*
X114000000Y-162450000D01*
X118600000Y-148245000D02*
X118600000Y-145000000D01*
X114000000Y-168750000D02*
X114000000Y-162450000D01*
X117070000Y-149775000D02*
X118600000Y-148245000D01*
X117070000Y-149775000D02*
X116525000Y-149775000D01*
X99305000Y-129920000D02*
X96845000Y-129920000D01*
X115384000Y-156290999D02*
X112724999Y-158950000D01*
X96845000Y-129920000D02*
X96700000Y-129775000D01*
%TO.N,Net-(U1-EN)*%
X96700000Y-131425000D02*
X95700000Y-131425000D01*
X94750000Y-131425000D02*
X94625000Y-131300000D01*
X96800000Y-131800000D02*
X96800000Y-138600000D01*
X96700000Y-131700000D02*
X96800000Y-131800000D01*
X96700000Y-131425000D02*
X96700000Y-131700000D01*
X95700000Y-131425000D02*
X94750000Y-131425000D01*
X94750000Y-131425000D02*
X94700000Y-131375000D01*
X96935000Y-131190000D02*
X96700000Y-131425000D01*
X99305000Y-131190000D02*
X96935000Y-131190000D01*
%TO.N,/BAT_SENSE*%
X90865368Y-163909000D02*
X89959000Y-164815368D01*
X101070000Y-146410000D02*
X101070000Y-154430000D01*
X101070000Y-154430000D02*
X91591000Y-163909000D01*
X91591000Y-163909000D02*
X90865368Y-163909000D01*
X91350000Y-170800000D02*
X91350000Y-167800000D01*
X91110646Y-167800000D02*
X91350000Y-167800000D01*
X89959000Y-164815368D02*
X89959000Y-166648354D01*
X89959000Y-166648354D02*
X91110646Y-167800000D01*
D48*
%TO.N,Net-(J1-Pin_1)*%
X86400000Y-157000000D02*
X86400000Y-170980000D01*
X91715000Y-174630000D02*
X92175000Y-175090000D01*
X90050000Y-174630000D02*
X91715000Y-174630000D01*
X92175000Y-175090000D02*
X92175000Y-172550000D01*
X86400000Y-170980000D02*
X90050000Y-174630000D01*
D47*
%TO.N,Net-(U1-USB_D-)*%
X88225000Y-143875000D02*
X99290000Y-143875000D01*
X99290000Y-143875000D02*
X99305000Y-143890000D01*
%TO.N,Net-(J2-CC2)*%
X85725000Y-143025000D02*
X85700000Y-143000000D01*
X86875000Y-143025000D02*
X85725000Y-143025000D01*
%TO.N,Net-(U1-USB_D+)*%
X88225000Y-144725000D02*
X98870000Y-144725000D01*
X98870000Y-144725000D02*
X99305000Y-145160000D01*
D48*
%TO.N,Net-(Q1-G)*%
X92175000Y-176360000D02*
X90130000Y-176360000D01*
X92175000Y-182065000D02*
X92100000Y-182140000D01*
X90130000Y-176360000D02*
X90050000Y-176280000D01*
X92100000Y-176435000D02*
X92175000Y-176360000D01*
X92175000Y-176360000D02*
X92175000Y-182065000D01*
D47*
%TO.N,Net-(U4-VSENSE)*%
X94240000Y-164650000D02*
X94645000Y-165055000D01*
X92900000Y-164650000D02*
X94240000Y-164650000D01*
X91370000Y-164650000D02*
X92900000Y-164650000D01*
%TO.N,Net-(U1-IO0)*%
X117070000Y-148125000D02*
X117070000Y-145425000D01*
X116260000Y-145160000D02*
X114700000Y-143600000D01*
X116805000Y-145160000D02*
X116260000Y-145160000D01*
X117070000Y-145425000D02*
X116805000Y-145160000D01*
%TO.N,Net-(U1-IO2)*%
X115500000Y-131200000D02*
X116795000Y-131200000D01*
X116795000Y-131200000D02*
X116805000Y-131190000D01*
%TO.N,/SPI_MOSI*%
X112500000Y-147400000D02*
X112500000Y-146410000D01*
X113557000Y-152466536D02*
X113557000Y-148457000D01*
X111750000Y-153870000D02*
X112153536Y-153870000D01*
X113557000Y-148457000D02*
X112500000Y-147400000D01*
X112153536Y-153870000D02*
X113557000Y-152466536D01*
%TO.N,/SPI_MISO*%
X114048000Y-146688000D02*
X113770000Y-146410000D01*
X112724999Y-155140000D02*
X114048000Y-153816999D01*
X114048000Y-153816999D02*
X114048000Y-146688000D01*
X111750000Y-155140000D02*
X112724999Y-155140000D01*
%TO.N,/SPI_CS*%
X111750000Y-152600000D02*
X112724999Y-152600000D01*
X113066000Y-149296000D02*
X111230000Y-147460000D01*
X113066000Y-152258999D02*
X113066000Y-149296000D01*
X112724999Y-152600000D02*
X113066000Y-152258999D01*
X111230000Y-147460000D02*
X111230000Y-146410000D01*
%TO.N,/SPI_CLK*%
X115040000Y-146410000D02*
X114893000Y-146557000D01*
X114893000Y-154241999D02*
X112724999Y-156410000D01*
X114893000Y-146557000D02*
X114893000Y-154241999D01*
X112724999Y-156410000D02*
X111750000Y-156410000D01*
%TO.N,Net-(SW4-A)*%
X125595000Y-137750000D02*
X117765000Y-129920000D01*
X117765000Y-129920000D02*
X116805000Y-129920000D01*
%TO.N,Net-(J4-Pin_15)*%
X121700000Y-155760000D02*
X121050000Y-156410000D01*
X121050000Y-156410000D02*
X116700000Y-156410000D01*
%TO.N,Net-(J4-Pin_16)*%
X127173000Y-152827000D02*
X124240000Y-155760000D01*
X127173000Y-144765537D02*
X127173000Y-152827000D01*
X121217463Y-138810000D02*
X127173000Y-144765537D01*
X116805000Y-138810000D02*
X121217463Y-138810000D01*
%TO.N,Net-(J4-Pin_14)*%
X120641841Y-137540000D02*
X127664000Y-144562159D01*
X127664000Y-144562159D02*
X127664000Y-154876000D01*
X127664000Y-154876000D02*
X124240000Y-158300000D01*
X116805000Y-137540000D02*
X120641841Y-137540000D01*
%TO.N,Net-(J4-Pin_11)*%
X116700000Y-158950000D02*
X119810000Y-158950000D01*
X119810000Y-158950000D02*
X121700000Y-160840000D01*
%TO.N,Net-(J4-Pin_9)*%
X118540000Y-160220000D02*
X121700000Y-163380000D01*
X116700000Y-160220000D02*
X118540000Y-160220000D01*
%TO.N,Net-(J4-Pin_18)*%
X121793085Y-140080000D02*
X126682000Y-144968915D01*
X126682000Y-144968915D02*
X126682000Y-150778000D01*
X116805000Y-140080000D02*
X121793085Y-140080000D01*
X126682000Y-150778000D02*
X124240000Y-153220000D01*
%TO.N,Net-(J4-Pin_13)*%
X116700000Y-157680000D02*
X121080000Y-157680000D01*
X121080000Y-157680000D02*
X121700000Y-158300000D01*
%TO.N,Net-(J4-Pin_12)*%
X128155000Y-144358781D02*
X128155000Y-156925000D01*
X128155000Y-156925000D02*
X124240000Y-160840000D01*
X116805000Y-136270000D02*
X120066219Y-136270000D01*
X120066219Y-136270000D02*
X128155000Y-144358781D01*
%TO.N,Net-(J4-Pin_17)*%
X119780000Y-155140000D02*
X116700000Y-155140000D01*
X121700000Y-153220000D02*
X119780000Y-155140000D01*
%TO.N,Net-(J4-Pin_10)*%
X116805000Y-135000000D02*
X119490597Y-135000000D01*
X128646000Y-144155403D02*
X128646000Y-158974000D01*
X119490597Y-135000000D02*
X128646000Y-144155403D01*
X128646000Y-158974000D02*
X124240000Y-163380000D01*
%TO.N,Net-(J4-Pin_21)*%
X117240000Y-152600000D02*
X116700000Y-152600000D01*
X121700000Y-148140000D02*
X117240000Y-152600000D01*
%TO.N,Net-(J4-Pin_24)*%
X122530000Y-143890000D02*
X124240000Y-145600000D01*
X116805000Y-143890000D02*
X122530000Y-143890000D01*
%TO.N,Net-(J4-Pin_20)*%
X116805000Y-141350000D02*
X122368707Y-141350000D01*
X126191000Y-148729000D02*
X124240000Y-150680000D01*
X126191000Y-145172293D02*
X126191000Y-148729000D01*
X122368707Y-141350000D02*
X126191000Y-145172293D01*
%TO.N,Net-(J4-Pin_23)*%
X121700000Y-146390632D02*
X116760632Y-151330000D01*
X121700000Y-145600000D02*
X121700000Y-146390632D01*
X116760632Y-151330000D02*
X116700000Y-151330000D01*
%TO.N,Net-(J4-Pin_22)*%
X122944329Y-142620000D02*
X125700000Y-145375671D01*
X116805000Y-142620000D02*
X122944329Y-142620000D01*
X125700000Y-146680000D02*
X124240000Y-148140000D01*
X125700000Y-145375671D02*
X125700000Y-146680000D01*
%TO.N,Net-(J4-Pin_19)*%
X118510000Y-153870000D02*
X116700000Y-153870000D01*
X121700000Y-150680000D02*
X118510000Y-153870000D01*
%TO.N,Net-(M1-Pin_2)*%
X106150000Y-151050000D02*
X106150000Y-146410000D01*
X106700000Y-151600000D02*
X106150000Y-151050000D01*
%TO.N,Net-(M2-Pin_2)*%
X107891000Y-146881000D02*
X107420000Y-146410000D01*
X106700000Y-158600000D02*
X107891000Y-157409000D01*
X107891000Y-157409000D02*
X107891000Y-146881000D01*
%TO.N,Net-(M3-Pin_2)*%
X107891000Y-159243328D02*
X107891000Y-158103378D01*
X106700000Y-165600000D02*
X107700000Y-164600000D01*
X108382000Y-146718000D02*
X108690000Y-146410000D01*
X107700000Y-164600000D02*
X107700000Y-159434328D01*
X107891000Y-158103378D02*
X108382000Y-157612378D01*
X108382000Y-157612378D02*
X108382000Y-146718000D01*
X107700000Y-159434328D02*
X107891000Y-159243328D01*
%TO.N,Net-(SW5-A)*%
X99225000Y-142700000D02*
X99305000Y-142620000D01*
X97800000Y-142700000D02*
X99225000Y-142700000D01*
%TD*%
M02*
