M48
; DRILL file {KiCad 9.0.6} date 2026-01-23T15:58:03+0100
; FORMAT={-:-/ absolute / metric / decimal}
; #@! TF.CreationDate,2026-01-23T15:58:03+01:00
; #@! TF.GenerationSoftware,Kicad,Pcbnew,9.0.6
; #@! TF.FileFunction,Plated,1,2,PTH
FMAT,2
METRIC
; #@! TA.AperFunction,Plated,PTH,ComponentDrill
T1C0.200
; #@! TA.AperFunction,Plated,PTH,ViaDrill
T2C0.300
; #@! TA.AperFunction,Plated,PTH,ComponentDrill
T3C0.300
; #@! TA.AperFunction,Plated,PTH,ComponentDrill
T4C0.400
; #@! TA.AperFunction,Plated,PTH,ViaDrill
T5C0.600
; #@! TA.AperFunction,Plated,PTH,ComponentDrill
T6C0.600
; #@! TA.AperFunction,Plated,PTH,ComponentDrill
T7C1.000
; #@! TA.AperFunction,Plated,PTH,ComponentDrill
T8C4.500
%
G90
G05
T1
X105.155Y-135.67
X105.155Y-137.07
X105.855Y-134.97
X105.855Y-136.37
X105.855Y-137.77
X106.555Y-135.67
X106.555Y-137.07
X107.255Y-134.97
X107.255Y-136.37
X107.255Y-137.77
X107.955Y-135.67
X107.955Y-137.07
T2
X97.8Y-142.7
X100.2Y-129.9
X114.7Y-143.6
X115.5Y-131.2
X118.6Y-145.0
T3
X94.75Y-167.155
X94.75Y-168.355
X95.85Y-167.155
X95.85Y-168.355
X97.15Y-167.155
X97.15Y-168.355
X98.35Y-167.155
X98.35Y-168.355
T4
X86.875Y-141.325
X86.875Y-142.175
X86.875Y-143.025
X86.875Y-143.875
X86.875Y-144.725
X86.875Y-145.575
X86.875Y-146.425
X86.875Y-147.275
X88.225Y-141.325
X88.225Y-142.175
X88.225Y-143.025
X88.225Y-143.875
X88.225Y-144.725
X88.225Y-145.575
X88.225Y-146.425
X88.225Y-147.275
T5
X90.8Y-166.3
T7
X104.2Y-151.6
X104.2Y-158.6
X104.2Y-165.6
X106.7Y-151.6
X106.7Y-158.6
X106.7Y-165.6
X121.7Y-145.6
X121.7Y-148.14
X121.7Y-150.68
X121.7Y-153.22
X121.7Y-155.76
X121.7Y-158.3
X121.7Y-160.84
X121.7Y-163.38
X121.7Y-165.92
X121.7Y-168.46
X121.7Y-171.0
X121.7Y-173.54
X124.24Y-145.6
X124.24Y-148.14
X124.24Y-150.68
X124.24Y-153.22
X124.24Y-155.76
X124.24Y-158.3
X124.24Y-160.84
X124.24Y-163.38
X124.24Y-165.92
X124.24Y-168.46
X124.24Y-171.0
X124.24Y-173.54
T8
X86.4Y-157.0
X93.6Y-157.0
T6
G00X83.465Y-139.975
M15
G01X84.265Y-139.975
M16
G05
G00X83.465Y-148.625
M15
G01X84.265Y-148.625
M16
G05
G00X86.495Y-139.975
M15
G01X87.995Y-139.975
M16
G05
G00X86.495Y-148.625
M15
G01X87.995Y-148.625
M16
G05
M30
