%TF.GenerationSoftware,KiCad,Pcbnew,9.0.6*%
%TF.CreationDate,2026-01-23T15:57:10+01:00*%
%TF.ProjectId,customPCB,63757374-6f6d-4504-9342-2e6b69636164,rev?*%
%TF.SameCoordinates,Original*%
%TF.FileFunction,Copper,L2,Bot*%
%TF.FilePolarity,Positive*%
%FSLAX46Y46*%
G04 Gerber Fmt 4.6, Leading zero omitted, Abs format (unit mm)*
G04 Created by KiCad (PCBNEW 9.0.6) date 2026-01-23 15:57:10*
%MOMM*%
%LPD*%
G01*
G04 APERTURE LIST*
G04 Aperture macros list*
%AMRoundRect*
0 Rectangle with rounded corners*
0 $1 Rounding radius*
0 $2 $3 $4 $5 $6 $7 $8 $9 X,Y pos of 4 corners*
0 Add a 4 corners polygon primitive as box body*
4,1,4,$2,$3,$4,$5,$6,$7,$8,$9,$2,$3,0*
0 Add four circle primitives for the rounded corners*
1,1,$1+$1,$2,$3*
1,1,$1+$1,$4,$5*
1,1,$1+$1,$6,$7*
1,1,$1+$1,$8,$9*
0 Add four rect primitives between the rounded corners*
20,1,$1+$1,$2,$3,$4,$5,0*
20,1,$1+$1,$4,$5,$6,$7,0*
20,1,$1+$1,$6,$7,$8,$9,0*
20,1,$1+$1,$8,$9,$2,$3,0*%
G04 Aperture macros list end*
%TA.AperFunction,HeatsinkPad*%
%ADD10C,0.600000*%
%TD*%
%TA.AperFunction,ComponentPad*%
%ADD11C,0.600000*%
%TD*%
%TA.AperFunction,SMDPad,CuDef*%
%ADD12R,4.500000X2.950000*%
%TD*%
%TA.AperFunction,ComponentPad*%
%ADD13RoundRect,0.250000X-0.600000X-0.750000X0.600000X-0.750000X0.600000X0.750000X-0.600000X0.750000X0*%
%TD*%
%TA.AperFunction,ComponentPad*%
%ADD14O,1.700000X2.000000*%
%TD*%
%TA.AperFunction,ComponentPad*%
%ADD15C,0.700000*%
%TD*%
%TA.AperFunction,ComponentPad*%
%ADD16O,1.700000X0.900000*%
%TD*%
%TA.AperFunction,ComponentPad*%
%ADD17O,2.400000X0.900000*%
%TD*%
%TA.AperFunction,ComponentPad*%
%ADD18C,1.700000*%
%TD*%
%TA.AperFunction,ComponentPad*%
%ADD19RoundRect,0.250000X-0.600000X-0.600000X0.600000X-0.600000X0.600000X0.600000X-0.600000X0.600000X0*%
%TD*%
%TA.AperFunction,SMDPad,CuDef*%
%ADD20R,0.900000X1.700000*%
%TD*%
%TA.AperFunction,SMDPad,CuDef*%
%ADD21RoundRect,0.250000X0.325000X0.650000X-0.325000X0.650000X-0.325000X-0.650000X0.325000X-0.650000X0*%
%TD*%
%TA.AperFunction,ComponentPad*%
%ADD22RoundRect,1.500000X-1.500000X-1.500000X1.500000X-1.500000X1.500000X1.500000X-1.500000X1.500000X0*%
%TD*%
%TA.AperFunction,ComponentPad*%
%ADD23C,6.000000*%
%TD*%
%TA.AperFunction,SMDPad,CuDef*%
%ADD24RoundRect,0.218750X-0.218750X-0.256250X0.218750X-0.256250X0.218750X0.256250X-0.218750X0.256250X0*%
%TD*%
%TA.AperFunction,SMDPad,CuDef*%
%ADD25RoundRect,0.200000X0.200000X0.275000X-0.200000X0.275000X-0.200000X-0.275000X0.200000X-0.275000X0*%
%TD*%
%TA.AperFunction,SMDPad,CuDef*%
%ADD26RoundRect,0.250000X1.000000X0.650000X-1.000000X0.650000X-1.000000X-0.650000X1.000000X-0.650000X0*%
%TD*%
%TA.AperFunction,SMDPad,CuDef*%
%ADD27RoundRect,0.200000X-0.200000X-0.275000X0.200000X-0.275000X0.200000X0.275000X-0.200000X0.275000X0*%
%TD*%
%TA.AperFunction,SMDPad,CuDef*%
%ADD28R,0.800000X1.000000*%
%TD*%
%TA.AperFunction,SMDPad,CuDef*%
%ADD29R,1.500000X0.700000*%
%TD*%
%TA.AperFunction,ViaPad*%
%ADD30C,1.000000*%
%TD*%
%TA.AperFunction,ViaPad*%
%ADD31C,0.600000*%
%TD*%
%TA.AperFunction,Conductor*%
%ADD32C,0.900000*%
%TD*%
%TA.AperFunction,Conductor*%
%ADD33C,0.300000*%
%TD*%
G04 APERTURE END LIST*
D10*
%TO.P,U1,41,GND*%
%TO.N,/GND*%
X105155000Y-135670000D03*
X105155000Y-137070000D03*
X105855000Y-134970000D03*
X105855000Y-136370000D03*
X105855000Y-137770000D03*
X106555000Y-135670000D03*
X106555000Y-137070000D03*
X107255000Y-134970000D03*
X107255000Y-136370000D03*
X107255000Y-137770000D03*
X107955000Y-135670000D03*
X107955000Y-137070000D03*
%TD*%
D11*
%TO.P,U4,9,GNDPAD*%
%TO.N,/GND*%
X98350000Y-167155000D03*
X97150000Y-167155000D03*
X95850000Y-167155000D03*
X94750000Y-167155000D03*
D12*
X96550000Y-167755000D03*
D11*
X98350000Y-168355000D03*
X97150000Y-168355000D03*
X95850000Y-168355000D03*
X94750000Y-168355000D03*
%TD*%
D13*
%TO.P,M1,1,Pin_1*%
%TO.N,/GND*%
X104200000Y-151600000D03*
D14*
%TO.P,M1,2,Pin_2*%
%TO.N,Net-(M1-Pin_2)*%
X106700000Y-151600000D03*
%TD*%
D15*
%TO.P,J2,A1,GND*%
%TO.N,/GND*%
X88225000Y-147275000D03*
%TO.P,J2,A4,VBUS*%
%TO.N,Net-(D3-A)*%
X88225000Y-146425000D03*
%TO.P,J2,A5,CC1*%
%TO.N,Net-(J2-CC1)*%
X88225000Y-145575000D03*
%TO.P,J2,A6,D+*%
%TO.N,Net-(U1-USB_D+)*%
X88225000Y-144725000D03*
%TO.P,J2,A7,D-*%
%TO.N,Net-(U1-USB_D-)*%
X88225000Y-143875000D03*
%TO.P,J2,A8,SBU1*%
%TO.N,unconnected-(J2-SBU1-PadA8)*%
X88225000Y-143025000D03*
%TO.P,J2,A9,VBUS*%
%TO.N,Net-(D3-A)*%
X88225000Y-142175000D03*
%TO.P,J2,A12,GND*%
%TO.N,/GND*%
X88225000Y-141325000D03*
%TO.P,J2,B1,GND*%
X86875000Y-141325000D03*
%TO.P,J2,B4,VBUS*%
%TO.N,Net-(D3-A)*%
X86875000Y-142175000D03*
%TO.P,J2,B5,CC2*%
%TO.N,Net-(J2-CC2)*%
X86875000Y-143025000D03*
%TO.P,J2,B6,D+*%
%TO.N,unconnected-(J2-D+-PadB6)*%
X86875000Y-143875000D03*
%TO.P,J2,B7,D-*%
%TO.N,unconnected-(J2-D--PadB7)*%
X86875000Y-144725000D03*
%TO.P,J2,B8,SBU2*%
%TO.N,unconnected-(J2-SBU2-PadB8)*%
X86875000Y-145575000D03*
%TO.P,J2,B9,VBUS*%
%TO.N,Net-(D3-A)*%
X86875000Y-146425000D03*
%TO.P,J2,B12,GND*%
%TO.N,/GND*%
X86875000Y-147275000D03*
D16*
%TO.P,J2,S1,SHIELD*%
X83865000Y-148625000D03*
D17*
X87245000Y-148625000D03*
D16*
X83865000Y-139975000D03*
D17*
X87245000Y-139975000D03*
%TD*%
D18*
%TO.P,J4,1,Pin_1*%
%TO.N,unconnected-(J4-Pin_1-Pad1)*%
X121700000Y-173540000D03*
%TO.P,J4,2,Pin_2*%
%TO.N,unconnected-(J4-Pin_2-Pad2)*%
X124240000Y-173540000D03*
D19*
%TO.P,J4,3,Pin_3*%
%TO.N,/GND*%
X121700000Y-171000000D03*
%TO.P,J4,4,Pin_4*%
X124240000Y-171000000D03*
D18*
%TO.P,J4,5,Pin_5*%
%TO.N,/+5V*%
X121700000Y-168460000D03*
%TO.P,J4,6,Pin_6*%
X124240000Y-168460000D03*
%TO.P,J4,7,Pin_7*%
%TO.N,unconnected-(J4-Pin_7-Pad7)*%
X121700000Y-165920000D03*
%TO.P,J4,8,Pin_8*%
%TO.N,unconnected-(J4-Pin_8-Pad8)*%
X124240000Y-165920000D03*
%TO.P,J4,9,Pin_9*%
%TO.N,Net-(J4-Pin_9)*%
X121700000Y-163380000D03*
%TO.P,J4,10,Pin_10*%
%TO.N,Net-(J4-Pin_10)*%
X124240000Y-163380000D03*
%TO.P,J4,11,Pin_11*%
%TO.N,Net-(J4-Pin_11)*%
X121700000Y-160840000D03*
%TO.P,J4,12,Pin_12*%
%TO.N,Net-(J4-Pin_12)*%
X124240000Y-160840000D03*
%TO.P,J4,13,Pin_13*%
%TO.N,Net-(J4-Pin_13)*%
X121700000Y-158300000D03*
%TO.P,J4,14,Pin_14*%
%TO.N,Net-(J4-Pin_14)*%
X124240000Y-158300000D03*
%TO.P,J4,15,Pin_15*%
%TO.N,Net-(J4-Pin_15)*%
X121700000Y-155760000D03*
%TO.P,J4,16,Pin_16*%
%TO.N,Net-(J4-Pin_16)*%
X124240000Y-155760000D03*
%TO.P,J4,17,Pin_17*%
%TO.N,Net-(J4-Pin_17)*%
X121700000Y-153220000D03*
%TO.P,J4,18,Pin_18*%
%TO.N,Net-(J4-Pin_18)*%
X124240000Y-153220000D03*
%TO.P,J4,19,Pin_19*%
%TO.N,Net-(J4-Pin_19)*%
X121700000Y-150680000D03*
%TO.P,J4,20,Pin_20*%
%TO.N,Net-(J4-Pin_20)*%
X124240000Y-150680000D03*
%TO.P,J4,21,Pin_21*%
%TO.N,Net-(J4-Pin_21)*%
X121700000Y-148140000D03*
%TO.P,J4,22,Pin_22*%
%TO.N,Net-(J4-Pin_22)*%
X124240000Y-148140000D03*
%TO.P,J4,23,Pin_23*%
%TO.N,Net-(J4-Pin_23)*%
X121700000Y-145600000D03*
%TO.P,J4,24,Pin_24*%
%TO.N,Net-(J4-Pin_24)*%
X124240000Y-145600000D03*
%TD*%
D20*
%TO.P,SW3,1,1*%
%TO.N,/GND*%
X110270000Y-143600000D03*
%TO.P,SW3,2,2*%
%TO.N,Net-(U1-IO0)*%
X113670000Y-143600000D03*
%TD*%
D21*
%TO.P,C6,1*%
%TO.N,/+3V3*%
X113375000Y-140700000D03*
%TO.P,C6,2*%
%TO.N,/GND*%
X110425000Y-140700000D03*
%TD*%
D22*
%TO.P,J1,1,Pin_1*%
%TO.N,Net-(J1-Pin_1)*%
X86400000Y-157000000D03*
D23*
%TO.P,J1,2,Pin_2*%
%TO.N,/GND*%
X93600000Y-157000000D03*
%TD*%
D24*
%TO.P,D2,1,K*%
%TO.N,/GND*%
X109712500Y-135700000D03*
%TO.P,D2,2,A*%
%TO.N,Net-(D2-A)*%
X111287500Y-135700000D03*
%TD*%
D25*
%TO.P,R2,1*%
%TO.N,/GND*%
X100725000Y-145800000D03*
%TO.P,R2,2*%
%TO.N,Net-(J2-CC1)*%
X99075000Y-145800000D03*
%TD*%
D24*
%TO.P,D4,1,K*%
%TO.N,/GND*%
X108812500Y-138800000D03*
%TO.P,D4,2,A*%
%TO.N,Net-(D4-A)*%
X110387500Y-138800000D03*
%TD*%
D26*
%TO.P,D3,1,K*%
%TO.N,/+5V*%
X116100000Y-165600000D03*
%TO.P,D3,2,A*%
%TO.N,Net-(D3-A)*%
X112100000Y-165600000D03*
%TD*%
D27*
%TO.P,R10,1*%
%TO.N,Net-(D2-A)*%
X112700000Y-135700000D03*
%TO.P,R10,2*%
%TO.N,Net-(U1-IO2)*%
X114350000Y-135700000D03*
%TD*%
%TO.P,R11,1*%
%TO.N,Net-(D4-A)*%
X111850000Y-138800000D03*
%TO.P,R11,2*%
%TO.N,/+3V3*%
X113500000Y-138800000D03*
%TD*%
D13*
%TO.P,M3,1,Pin_1*%
%TO.N,/GND*%
X104200000Y-165600000D03*
D14*
%TO.P,M3,2,Pin_2*%
%TO.N,Net-(M3-Pin_2)*%
X106700000Y-165600000D03*
%TD*%
D28*
%TO.P,SW5,*%
%TO.N,*%
X82170000Y-136550000D03*
X84380000Y-136550000D03*
X82170000Y-129250000D03*
X84380000Y-129250000D03*
D29*
%TO.P,SW5,1,A*%
%TO.N,Net-(SW5-A)*%
X85030000Y-135150000D03*
%TO.P,SW5,2,B*%
%TO.N,/GND*%
X85030000Y-132150000D03*
%TO.P,SW5,3,C*%
%TO.N,unconnected-(SW5-C-Pad3)*%
X85030000Y-130650000D03*
%TD*%
D13*
%TO.P,M2,1,Pin_1*%
%TO.N,/GND*%
X104200000Y-158600000D03*
D14*
%TO.P,M2,2,Pin_2*%
%TO.N,Net-(M2-Pin_2)*%
X106700000Y-158600000D03*
%TD*%
D30*
%TO.N,/+5V*%
X90800000Y-166300000D03*
D31*
%TO.N,/+3V3*%
X100200000Y-129900000D03*
X118600000Y-145000000D03*
%TO.N,Net-(U1-IO0)*%
X114700000Y-143600000D03*
%TO.N,Net-(U1-IO2)*%
X115500000Y-131200000D03*
%TO.N,Net-(SW5-A)*%
X97800000Y-142700000D03*
%TD*%
D32*
%TO.N,/GND*%
X96550000Y-167755000D02*
X102045000Y-167755000D01*
X104200000Y-149670000D02*
X110270000Y-143600000D01*
X110270000Y-143600000D02*
X110270000Y-140785000D01*
X104200000Y-151600000D02*
X104200000Y-149670000D01*
X93600000Y-157000000D02*
X97150000Y-160550000D01*
X85030000Y-132150000D02*
X89975000Y-132150000D01*
X102045000Y-167755000D02*
X104200000Y-165600000D01*
X110270000Y-140785000D02*
X106555000Y-137070000D01*
X109712500Y-135700000D02*
X107985000Y-135700000D01*
X100725000Y-142900000D02*
X106555000Y-137070000D01*
X107985000Y-135700000D02*
X107955000Y-135670000D01*
X100725000Y-145800000D02*
X100725000Y-142900000D01*
X97150000Y-160550000D02*
X97150000Y-167155000D01*
X89975000Y-132150000D02*
X100725000Y-142900000D01*
%TO.N,/+5V*%
X118840000Y-165600000D02*
X121700000Y-168460000D01*
X90800000Y-167012000D02*
X94688000Y-170900000D01*
X110800000Y-170900000D02*
X116100000Y-165600000D01*
X94688000Y-170900000D02*
X110800000Y-170900000D01*
X116100000Y-165600000D02*
X118840000Y-165600000D01*
X90800000Y-166300000D02*
X90800000Y-167012000D01*
D33*
%TO.N,/+3V3*%
X113500000Y-138800000D02*
X113500000Y-139900000D01*
X113500000Y-135062936D02*
X113500000Y-138800000D01*
X100200000Y-129900000D02*
X108337064Y-129900000D01*
X108337064Y-129900000D02*
X113500000Y-135062936D01*
X113500000Y-139900000D02*
X118600000Y-145000000D01*
%TO.N,Net-(D2-A)*%
X111287500Y-135700000D02*
X112700000Y-135700000D01*
%TO.N,Net-(D3-A)*%
X99525328Y-148580354D02*
X99525328Y-149591000D01*
X88225000Y-142175000D02*
X86804346Y-142175000D01*
X86875000Y-146425000D02*
X88225000Y-146425000D01*
X97369974Y-146425000D02*
X99525328Y-148580354D01*
X86804346Y-146425000D02*
X86875000Y-146425000D01*
X86224000Y-145844654D02*
X86804346Y-146425000D01*
X86224000Y-142755346D02*
X86224000Y-145844654D01*
X112100000Y-162165672D02*
X112100000Y-165600000D01*
X88225000Y-146425000D02*
X97369974Y-146425000D01*
X99525328Y-149591000D02*
X112100000Y-162165672D01*
X86804346Y-142175000D02*
X86224000Y-142755346D01*
%TO.N,Net-(D4-A)*%
X111850000Y-138800000D02*
X110387500Y-138800000D01*
%TO.N,Net-(J2-CC1)*%
X98850000Y-145575000D02*
X99075000Y-145800000D01*
X88225000Y-145575000D02*
X98850000Y-145575000D01*
%TO.N,Net-(U1-IO0)*%
X113670000Y-143600000D02*
X114700000Y-143600000D01*
%TO.N,Net-(U1-IO2)*%
X114350000Y-135700000D02*
X114350000Y-132350000D01*
X114350000Y-132350000D02*
X115500000Y-131200000D01*
%TO.N,Net-(SW5-A)*%
X85030000Y-135150000D02*
X90250000Y-135150000D01*
X90250000Y-135150000D02*
X97800000Y-142700000D01*
%TD*%
M02*
